<?xml version="1.0" encoding="utf-8"?>
<!-- Generator: Adobe Illustrator 27.0.1, SVG Export Plug-In . SVG Version: 6.00 Build 0)  -->
<svg version="1.1" id="Layer_1" xmlns="http://www.w3.org/2000/svg" xmlns:xlink="http://www.w3.org/1999/xlink" x="0px" y="0px"
	 viewBox="0 0 1920 1080" style="enable-background:new 0 0 1920 1080;" xml:space="preserve">
<style type="text/css">
	.st0{fill:#534741;}
	.st1{fill:#998675;}
	.st2{fill:#736357;}
	.st3{fill:#F2F2F2;}
	.st4{fill:#FFCD77;stroke:#FFCD77;stroke-miterlimit:10;}
	.st5{fill:#ED8772;}
	.st6{fill:#292D95;}
	.st7{fill:#00923D;stroke:#00923D;stroke-miterlimit:10;}
	.st8{fill:#00B570;stroke:#00B570;stroke-miterlimit:10;}
	.st9{fill:#006830;}
	.st10{fill:#009245;}
	.st11{font-family:'MyriadPro-Regular';}
	.st12{font-size:68.8543px;}
	.st13{font-size:20.6566px;}
	.st14{fill:none;}
	.st15{opacity:0.1091;fill:#009245;enable-background:new    ;}
	.st16{fill:none;stroke:#000000;stroke-miterlimit:10;}
</style>
<polygon class="st0" points="0,1077.18 11.11,577.04 496.05,582.68 486.17,1074.36 "/>
<polygon class="st1" points="495.91,588.31 553.78,639.59 538.01,1074.27 478.35,1074.36 "/>
<polygon class="st0" points="553.37,635.93 691.47,635.93 689.14,1071.55 539.38,1068.82 "/>
<path d="M740.3,711.54"/>
<polygon class="st1" points="691.34,633.11 734.67,677.35 725.21,1065.91 679.27,1071.55 "/>
<polygon class="st0" points="729.6,792.78 914.47,792.78 911.04,1077.18 720.27,1078.59 "/>
<polygon class="st1" points="3.29,576.48 55.27,462.74 233.42,343.17 365.35,341.67 464.5,456.82 495.91,588.31 "/>
<polygon class="st0" points="464.5,456.82 538.29,547.64 553.37,635.93 495.91,588.31 "/>
<polygon class="st2" points="914.88,589.63 1099.61,592.26 1109.76,1074.74 900.07,1078.59 900.75,1058.02 "/>
<polyline class="st0" points="933.39,591.04 939.98,386.56 1075.47,382.34 1082.06,592.44 "/>
<path class="st2" d="M953.28,381.12c-1.51-2.54-3.15-13.34-6.72-34.75c-4.39-27.61-4.53-32.69-3.29-38.04
	c2.88-13.34,10.29-14.46,16.59-24.8c12.62-20.38,3.15-47.15,4.39-97.59c0.82-33.44,4.94-24.14,11.11-86.03
	c5.76-58.8,3.15-78.24,14.4-91.01c10.01-11.27,26.06-11.83,35.52-1.69c8.64,9.2,9.6,24.89,12.21,54.57
	c7.41,84.34,9.19,66.69,10.01,97.59c1.78,66.87-7.95,86.5,4.39,110.83c6.58,12.87,14.67,18.03,16.59,34.75
	c1.51,12.87-2.47,17.75-3.29,41.33c-0.82,23.39,2.74,26.3,0,33.06c-5.76,14.65-23.45,4.79-62.13,6.57
	C973.71,387.5,960.82,394.27,953.28,381.12z"/>
<polygon class="st0" points="1099.89,794.19 1300.66,794.19 1296.96,1074.36 1089.87,1075.77 "/>
<polygon class="st0" points="1346.74,644.29 1515.98,644.29 1513.1,1080 1329.6,1077.18 "/>
<polygon class="st1" points="1349.49,649.93 1274.06,692.94 1290.51,1070.23 1370.61,1075.77 "/>
<path class="st1" d="M1325.07,598.08"/>
<path class="st1" d="M1274.06,693.32c-3.02-3.66,7.95-17,29.9-63.02c9.33-19.44,15.09-33.06,26.61-36.44
	c6.17-1.78,9.46,0.66,18.93,2.82c15.77,3.57,19.2-0.66,43.34-1.41c17.42-0.56,41.55,0.85,55.54,2.82c1.1,0.09,17.69,2.54,25.51-1.41
	c0.55-0.28,2.19-1.13,4.39-1.41c0,0,4.66-0.56,10.01,2.82c6.72,4.23,29.76,27.43,25.51,40.67c-3.7,11.46-24.41,4.13-86.54,4.23
	c-58.83,0.09-80.37-2.07-80.91,2.82c-0.14,1.5,1.65,3.1,3.29,4.23c-3.57,1.88-9.05,4.79-15.5,8.36c0,0-6.17,3.48-12.21,7.04
	C1295.59,680.73,1277.62,697.73,1274.06,693.32z"/>
<path class="st1" d="M1437.26,348.71"/>
<polygon class="st0" points="1705.65,641.85 1731.29,641.85 1730.88,1077.56 1703.04,1074.74 "/>
<polygon class="st3" points="1580.85,116.16 1920,116.16 1913.55,643.54 1563.7,646.07 "/>
<g>
	<path class="st4" d="M1746.38,269.35c46.08-12.49,73.23,12.77,90.79,43.67l7.82,123.6c-4.11-0.85-8.37-1.69-12.48-2.54
		c-9.6-1.97-19.34-3.85-28.94-5.82c-0.82-4.79-0.55-12.4,0.82-21.7c1.23-7.89,3.84-15.4,9.19-19.35v-36.07
		c15.77-24.98-87.77-20.1-97.65-25.64c-0.82,4.79-1.65,11.83-1.92,20.38c-0.69,22.07-1.1,38.41,9.6,51.09
		c6.86,8.08,12.21,8.83,16.46,17.28c2.19,4.32,2.61,10.24-0.14,20.38c-90.65-3.01-33.05,186.44-88.05,87.54
		c-22.77-46.68,6.99-93.17,45.81-115.81C1709.62,352.94,1672.46,301.28,1746.38,269.35z"/>
	<path class="st5" d="M1720.59,495.42c1.23-17.56,2.47-35.03,3.7-52.6c0.69-1.13,1.37-2.16,1.92-3.29
		c4.66-7.8,9.33-15.69,14.13-23.48c-9.19-10.52-18.38-20.94-27.57-31.46c0.55-20.57,0.96-41.04,1.51-61.61
		c32.91,3.29,65.83,6.67,98.74,9.96l7.27,49.22c-5.07,12.3-10.01,24.51-15.09,36.82c13.58,5.45,27.15,10.8,40.73,16.25
		c-17.28,20.76-34.56,41.51-51.84,62.27L1720.59,495.42z"/>
	<g>
		<path class="st6" d="M1717.03,343.08c8.23-8.45,22.63-9.02,31.82-2.82c1.1,0.85,2.33,2.07,3.29,3.1c1.51,1.6,2.88,2.25,4.8,2.82
			c2.19,0.47,5.21,0.94,6.72-1.32c1.65-2.54,3.43-5.26,5.9-6.76c5.49-3.48,11.25-3.1,16.87-1.78c6.45,1.6,12.48,4.51,17.97,9.02
			c3.43,2.72,8.64,6.01,7.13,12.49c-0.82,2.54-2.06,3.48-3.7,4.04c-0.96,0.38-2.06,0.28-2.74,0.47c-0.14,0-0.14,0.09,0,0
			c0.14-0.09,0.27-0.38,0.27-0.38c-0.14,0-0.27,1.5-0.69,3.29c-1.23,7.8-7.82,12.87-13.44,14.65c-12.75,4.7-30.03-4.04-33.33-21.32
			c-0.14-0.66-0.14-1.32-0.14-2.07c0-1.13,0,0.66,0.27,1.78c0.14,0.94,1.37,1.88,1.37,1.88c0.14,0.09,0.41,0.28,0.69,0.38h0.14
			c-0.41,0-0.96,0.09-1.51,0.28c-0.41,0.09-0.96,0.56-0.27,0.56c0.41,0.09,1.23-0.66,1.51-0.85c0.41-0.09,0.55,1.41,0.55,3.19
			c0,6.39-4.8,12.77-9.19,15.22c-10.15,6.2-23.31,5.17-31.95-4.6c-2.19-2.44-4.11-5.45-5.21-8.92
			C1711.54,358.29,1712.37,348.43,1717.03,343.08L1717.03,343.08z M1722.51,351.25c-1.1,1.32-2.61,2.25-3.02,4.23
			c-0.41,3.01,0.55,6.48,2.33,8.73c4.8,6.39,12.34,7.23,18.79,4.98c3.02-1.13,6.31-2.72,8.09-5.73c1.37-5.54,3.29-13.06,9.33-11.74
			c0.82,0.19,2.47,0.28,3.29,0.56c0.82,0.28,1.78,0.75,2.47,2.44c0.41,1.13,0.27,3.01,0.27,1.97c0.82,9.2,11.11,15.78,18.65,14.84
			c4.39-0.47,9.74-2.44,12.48-6.76c0.55-0.75,0.82-3.1,0.96-4.23c0.27-2.35,1.51-5.45,3.29-7.14c1.78-1.78,4.39-2.35,6.03-2.44
			c-2.61,0.85-3.57,4.88-2.19,7.23c-5.49-5.07-11.93-8.83-18.65-10.43c-3.57-0.85-7.82-1.32-10.97,0.56
			c-2.47,1.78-4.25,5.35-7.13,6.67c-3.57,1.88-7.68,1.97-11.38,1.03c-2.74-0.66-5.9-2.44-8.09-4.6c-1.1-1.03-1.78-1.88-2.47-2.25
			C1738.42,345.33,1728.14,345.9,1722.51,351.25L1722.51,351.25z"/>
	</g>
	<path class="st7" d="M1727.73,433.71c-3.98-3.19-20.85,5.07-30.31,16.34c-6.86,8.17-8.78,16.44-9.46,20.76
		c-6.03,57.11-12.07,114.21-18.1,171.32l39.77,0.66V541.35c-6.72-5.64-15.91-15.22-16.59-27.71c-0.55-8.83,3.43-15.12,7.95-22.64
		C1719.36,460.01,1732.66,437.56,1727.73,433.71z"/>
	<path class="st8" d="M1727.73,434.28c-5.9,15.03-12.48,26.58-17.42,34.56c-10.56,16.53-15.91,19.82-18.24,31.37
		c-0.82,3.94-4.53,23.11,7.27,33.25c2.74,2.44,5.62,3.57,7.95,7.51c3.84,6.29,2.19,12.87,1.51,16.91c-1.92,10.14,0,20.57-0.69,30.71
		c-3.57,46.12-4.11,48.84-0.69,52.13c7.13,6.95,16.87,2.25,51.7,2.54c44.57,0.38,58.83,8.27,69.12-0.66
		c7.41-6.39,5.07-15.03,4.39-37.66c-0.69-21.32,2.47-42.64,2.88-64.06c1.51-73.92,10.01-110.74,2.19-112.33
		c-5.49-1.13-16.18,15.69-25.51,30.15c-11.11,17.47-11.38,23.76-20.43,27.61c-8.78,3.85-12.21-0.66-35.66,0.66
		c-18.24,0.94-23.04,4.04-27.7,0.66c-3.29-2.44-4.39-6.57-2.88-28.83C1726.22,448.55,1727.04,440.1,1727.73,434.28z"/>
	<path class="st7" d="M1822.9,426.67c4.25-3.48,13.99,0.56,20.02,5.82c6.31,5.45,8.5,12.3,10.42,18.13
		c7.13,22.73,11.79,42.36,14.26,51.75c3.15,12.02,6.03,20.76,9.05,29.77c8.5,25.45,14.95,38.13,12.89,54.94
		c-0.96,7.8-3.15,13.34-3.84,14.84c-3.15,7.33-6.72,10.52-12.34,17.47c-14.26,17.85-11.11,21.7-18.1,25.27
		c-7.95,3.94-10.7-1.6-31.13-0.66c-13.3,0.66-17.42,3.19-20.71,0c-5.21-5.17-1.37-18.5,3.29-26.49c1.65-2.82,4.39-5.82,9.74-11.65
		c11.66-12.68,13.3-12.3,15.5-16.81c2.06-4.23,2.06-7.7,0-25.83c-1.65-15.22-2.33-18.78-3.29-26.49
		c-1.65-14.93-0.69-15.31-2.61-38.79c-1.23-15.69-1.78-23.57-2.61-28.46c-1.51-10.05-1.92-17.19-2.61-31.65
		C1820.71,431.93,1820.57,428.45,1822.9,426.67z"/>
	<g>
		<g>
			<path class="st9" d="M1709.21,509.32v9.2c0,0.85,0,1.5-0.14,2.07c0,0.56-0.14,1.13-0.41,1.69c-0.27,0.94-0.82,1.69-1.51,2.25
				s-1.51,0.85-2.47,0.85c-0.82,0-1.65-0.19-2.19-0.56c-0.55-0.38-1.1-0.94-1.37-1.78c-0.14-0.47-0.41-0.94-0.41-1.5
				c-0.14-0.56-0.14-1.13-0.14-1.69c0-0.56,0.14-0.94,0.41-1.32c0.27-0.28,0.55-0.47,0.82-0.47c0.41,0,0.55,0.09,0.82,0.38
				c0.14,0.28,0.27,0.66,0.41,1.22c0.14,0.66,0.14,1.13,0.27,1.5c0.14,0.38,0.27,0.66,0.55,0.94c0.27,0.28,0.55,0.38,0.96,0.38
				c1.23,0,1.78-1.13,1.78-3.48v-9.67c0-0.75,0.14-1.22,0.41-1.6s0.55-0.56,0.96-0.56s0.69,0.19,0.96,0.56
				C1709.07,508.1,1709.21,508.57,1709.21,509.32z"/>
			<path class="st9" d="M1720.46,523.03l-0.69-2.16h-5.35l-0.69,2.25c-0.27,0.85-0.41,1.5-0.69,1.78c-0.14,0.28-0.41,0.47-0.82,0.47
				c-0.27,0-0.69-0.19-0.82-0.47c-0.14-0.28-0.41-0.66-0.41-1.13c0-0.28,0-0.47,0.14-0.75c0-0.28,0.14-0.66,0.27-1.03l3.29-11.36
				c0.14-0.28,0.27-0.75,0.41-1.22c0.14-0.47,0.27-0.85,0.41-1.13c0.14-0.28,0.41-0.56,0.55-0.75c0.27-0.19,0.55-0.28,0.96-0.28
				c0.41,0,0.69,0.09,0.96,0.28c0.27,0.19,0.41,0.47,0.55,0.75c0.14,0.28,0.27,0.66,0.41,0.94c0.14,0.38,0.27,0.75,0.41,1.32
				l3.43,11.36c0.27,0.85,0.41,1.5,0.41,1.88c0,0.38-0.14,0.75-0.41,1.13s-0.55,0.47-0.96,0.47c-0.27,0-0.41-0.09-0.55-0.19
				c-0.14-0.09-0.27-0.28-0.41-0.38c-0.14-0.19-0.27-0.47-0.27-0.75C1720.59,523.6,1720.46,523.32,1720.46,523.03z M1715.25,518.15
				h3.84l-1.92-7.23L1715.25,518.15z"/>
			<path class="st9" d="M1738.15,510.45h-2.88v12.77c0,0.75-0.14,1.32-0.41,1.6c-0.27,0.38-0.55,0.56-0.96,0.56
				c-0.41,0-0.69-0.19-0.96-0.56c-0.27-0.38-0.41-0.94-0.41-1.6v-12.77h-2.88c-0.41,0-0.82-0.09-0.96-0.38
				c-0.27-0.28-0.27-0.66-0.27-1.03s0.14-0.85,0.41-1.03c0.27-0.28,0.55-0.38,0.96-0.38h8.37c0.41,0,0.82,0.09,0.96,0.38
				c0.14,0.28,0.27,0.66,0.27,1.03c0,0.47-0.14,0.75-0.27,1.03C1738.97,510.26,1738.56,510.45,1738.15,510.45z"/>
			<path class="st9" d="M1741.17,523.13v-13.81c0-0.75,0.14-1.22,0.41-1.6s0.55-0.56,0.96-0.56s0.69,0.19,0.96,0.56
				s0.41,0.94,0.41,1.6v13.81c0,0.75-0.14,1.22-0.41,1.6s-0.55,0.56-0.96,0.56s-0.69-0.19-0.96-0.56
				C1741.3,524.44,1741.17,523.88,1741.17,523.13z"/>
			<path class="st9" d="M1749.39,509.32v12.77h5.35c0.41,0,0.82,0.09,0.96,0.38c0.27,0.28,0.41,0.66,0.41,1.03
				c0,0.47-0.14,0.75-0.27,1.03c-0.27,0.28-0.55,0.38-0.96,0.38h-6.31c-0.55,0-0.96-0.19-1.23-0.56s-0.41-0.94-0.41-1.69v-13.52
				c0-0.75,0.14-1.22,0.41-1.6s0.55-0.56,0.96-0.56s0.69,0.19,0.96,0.56C1749.26,508.1,1749.39,508.57,1749.39,509.32z"/>
			<path class="st9" d="M1764.89,509.32v6.11l5.21-7.23c0.27-0.38,0.41-0.66,0.69-0.75c0.14-0.19,0.41-0.28,0.69-0.28
				c0.41,0,0.69,0.19,0.96,0.47c0.27,0.28,0.41,0.66,0.41,1.13c0,0.56-0.14,1.03-0.55,1.5l-3.15,4.13l3.7,7.14
				c0.27,0.47,0.41,0.94,0.55,1.32c0.14,0.38,0.14,0.75,0.14,1.03c0,0.38-0.14,0.75-0.41,1.03c-0.27,0.28-0.55,0.47-0.96,0.47
				c-0.41,0-0.69-0.09-0.96-0.28s-0.41-0.47-0.55-0.85c-0.14-0.38-0.27-0.66-0.41-0.94l-3.15-6.48l-2.19,2.82v3.66
				c0,0.75-0.14,1.32-0.41,1.6c-0.27,0.38-0.55,0.56-0.96,0.56c-0.27,0-0.41-0.09-0.69-0.28c-0.14-0.19-0.41-0.38-0.41-0.66
				c-0.14-0.19-0.14-0.47-0.14-0.75s0-0.75,0-1.32v-13.06c0-0.75,0.14-1.22,0.41-1.6s0.55-0.56,0.96-0.56
				c0.41,0,0.69,0.19,0.96,0.56C1764.89,508.1,1764.89,508.57,1764.89,509.32z"/>
			<path class="st9" d="M1778.33,509.32v12.77h5.35c0.41,0,0.82,0.09,0.96,0.38c0.27,0.28,0.41,0.66,0.41,1.03
				c0,0.47-0.14,0.75-0.27,1.03c-0.27,0.28-0.55,0.38-0.96,0.38h-6.31c-0.55,0-0.96-0.19-1.23-0.56s-0.41-0.94-0.41-1.69v-13.52
				c0-0.75,0.14-1.22,0.41-1.6s0.55-0.56,0.96-0.56c0.41,0,0.69,0.19,0.96,0.56C1778.19,508.1,1778.33,508.57,1778.33,509.32z"/>
			<path class="st9" d="M1786.83,523.13v-13.81c0-0.75,0.14-1.22,0.41-1.6s0.55-0.56,0.96-0.56s0.69,0.19,0.96,0.56
				s0.41,0.94,0.41,1.6v13.81c0,0.75-0.14,1.22-0.41,1.6s-0.55,0.56-0.96,0.56s-0.69-0.19-0.96-0.56
				C1786.97,524.44,1786.83,523.88,1786.83,523.13z"/>
			<path class="st9" d="M1796.85,522.38l-2.06-11.18v12.12c0,0.66-0.14,1.22-0.27,1.5c-0.27,0.38-0.55,0.47-0.82,0.47
				c-0.41,0-0.69-0.19-0.82-0.47c-0.27-0.38-0.27-0.85-0.27-1.5v-13.9c0-0.75,0.14-1.32,0.41-1.6c0.27-0.28,0.69-0.38,1.23-0.38
				h0.82c0.55,0,0.82,0.09,1.1,0.19c0.27,0.09,0.41,0.38,0.55,0.66c0.14,0.28,0.27,0.85,0.41,1.5l1.92,9.58l1.92-9.58
				c0.14-0.66,0.27-1.22,0.41-1.5c0.14-0.28,0.27-0.56,0.55-0.66c0.27-0.09,0.55-0.19,1.1-0.19h0.82c0.55,0,0.96,0.09,1.23,0.38
				c0.27,0.28,0.41,0.75,0.41,1.6v13.9c0,0.66-0.14,1.22-0.27,1.5c-0.27,0.38-0.55,0.47-0.82,0.47c-0.41,0-0.69-0.19-0.82-0.47
				c-0.27-0.38-0.27-0.85-0.27-1.5V511.2l-2.06,11.18c-0.14,0.75-0.27,1.22-0.27,1.6c-0.14,0.38-0.27,0.66-0.41,0.94
				c-0.27,0.28-0.55,0.38-0.96,0.38c-0.27,0-0.55-0.09-0.82-0.28c-0.27-0.19-0.41-0.38-0.55-0.66c-0.14-0.28-0.27-0.56-0.27-0.94
				C1796.98,523.13,1796.85,522.75,1796.85,522.38z"/>
			<path class="st9" d="M1815.91,523.03l-0.69-2.16h-5.35l-0.69,2.25c-0.27,0.85-0.41,1.5-0.69,1.78c-0.14,0.28-0.41,0.47-0.82,0.47
				c-0.27,0-0.69-0.19-0.82-0.47c-0.14-0.28-0.41-0.66-0.41-1.13c0-0.28,0-0.47,0.14-0.75c0-0.28,0.14-0.66,0.27-1.03l3.29-11.36
				c0.14-0.28,0.27-0.75,0.41-1.22c0.14-0.47,0.27-0.85,0.41-1.13c0.14-0.28,0.41-0.56,0.55-0.75c0.27-0.19,0.55-0.28,0.96-0.28
				s0.69,0.09,0.96,0.28c0.27,0.19,0.41,0.47,0.55,0.75c0.14,0.28,0.27,0.66,0.41,0.94c0.14,0.38,0.27,0.75,0.41,1.32l3.43,11.36
				c0.27,0.85,0.41,1.5,0.41,1.88c0,0.38-0.14,0.75-0.41,1.13s-0.55,0.47-0.96,0.47c-0.27,0-0.41-0.09-0.55-0.19
				c-0.14-0.09-0.27-0.28-0.41-0.38c-0.14-0.19-0.27-0.47-0.27-0.75C1816.05,523.6,1816.05,523.32,1815.91,523.03z M1810.7,518.15
				h3.84l-1.92-7.23L1810.7,518.15z"/>
		</g>
	</g>
</g>
<text transform="matrix(0.8638 0 0 1 1602.6924 193.394)" class="st10 st11 st12">STEM JA</text>
<text transform="matrix(0.8638 0 0 1 1809.7021 193.394)" class="st11 st13"> </text>
<polygon class="st14" points="2064.9,90.65 2067.3,90.65 2067.3,90.65 "/>
<g>
	<g>
		<g>
			<path class="st15" d="M1583.45,376.51c3.02-0.38,6.03-0.85,9.05-1.22c4.66-0.75,9.33-1.97,13.85-3.76
				c6.17-2.16,12.21-4.79,18.24-7.98c15.09-8.17,28.94-19.35,41.14-33.25c10.56-11.93,19.34-25.55,26.88-40.67
				c2.47-5.07,4.94-10.24,7.68-15.31c1.78-3.66,3.84-7.04,6.17-10.33c2.06-3.29,4.25-6.29,6.86-8.92c-0.14,0.09-0.27,0.19-0.41,0.38
				c3.29-3.38,6.86-6.2,10.7-8.55c3.7-2.25,7.54-3.94,11.66-5.17c8.23-2.63,16.73-3.57,25.1-4.51c15.91-1.78,32.09-2.91,47.31-9.2
				c9.05-3.66,17.42-9.2,24.82-16.72c7.68-7.8,14.13-17.47,19.2-27.99c5.21-10.8,9.05-22.73,11.25-35.13
				c1.1-6.2,1.78-12.59,2.06-18.97c0.27-6.48,0-12.87-0.69-19.25c-0.55,0.09-1.1,0.47-1.37,1.03c-1.51,1.69-3.15,3.38-4.66,5.07
				c-1.51,1.69-3.02,3.48-4.53,5.26c-0.55,0.47-0.82,1.03-0.96,1.69c0,7.04-0.14,13.62-1.23,20.57c-0.96,6.76-2.47,13.43-4.53,19.82
				c-4.11,12.59-10.42,24.8-18.24,34.19c-7.13,8.64-15.36,15.4-24.55,20.1c-11.66,5.92-24,8.64-36.48,11.08
				c0.14,0,0.27-0.09,0.41-0.09c-9.19,1.69-18.38,3.29-27.43,5.64c-8.64,2.25-17.28,4.98-25.23,10.05
				c-2.19,1.32-4.25,2.82-6.17,4.51c-3.57,3.01-6.99,6.2-10.42,9.58c-5.07,5.54-9.19,12.49-13.17,19.35
				c-5.76,9.96-10.83,20.48-17.28,29.77c-8.09,11.65-17.42,21.88-27.7,30.43s-21.39,15.5-32.91,20.48
				c-5.76,2.54-11.79,4.51-17.69,6.01c-5.76,1.22-11.52,1.88-17.42,1.97c0.14,0.56,0.41,1.03,0.96,1.32
				c1.37,1.32,2.74,2.63,4.25,3.94c1.37,1.32,2.88,2.54,4.25,3.76C1582.49,376.23,1583.04,376.51,1583.45,376.51z"/>
			<path class="st15" d="M1584.82,379.33c4.66-0.28,9.19-1.13,13.71-2.35c3.15-0.56,6.17-1.5,9.19-2.72
				c7.82-2.72,15.36-6.2,22.63-10.52c7.41-4.41,14.4-9.67,21.12-15.59c6.72-5.92,13.3-12.4,19.06-19.72
				c4.66-5.92,9.19-12.12,13.3-18.69c4.39-6.95,7.95-14.37,11.66-21.88c3.02-6.29,6.03-12.68,9.6-18.5
				c1.37-2.16,2.88-4.32,4.25-6.48c2.88-4.04,6.17-7.51,10.01-10.33c-0.14,0.09-0.27,0.19-0.41,0.28c1.92-1.32,3.98-2.72,5.9-4.04
				c-0.14,0.09-0.27,0.19-0.41,0.28c3.7-2.25,7.68-3.94,11.66-5.07c4.11-1.22,8.09-2.16,12.34-2.72c6.45-1.03,13.03-1.6,19.47-2.25
				c17.28-1.78,34.7-3.85,50.47-13.24c15.63-9.3,27.7-25.36,35.93-44.33c4.25-9.77,7.41-20.1,9.19-30.99
				c1.1-6.2,1.65-12.49,1.92-18.88c0.27-6.39,0-12.77-0.82-19.16c-0.55,0-0.96,0.28-1.37,0.75c-1.51,1.22-3.02,2.54-4.53,3.85
				c-1.51,1.32-3.02,2.63-4.39,4.04c-0.41,0.28-0.82,0.75-0.96,1.41c0.27,5.64,0.14,11.18-0.55,16.72
				c-0.55,5.54-1.51,10.99-2.88,16.34c-2.06,7.98-4.66,15.69-8.09,22.92c-7.95,16.53-19.75,30.81-33.74,38.7
				c-12.62,7.04-26.06,10.14-39.5,12.77c-8.91,1.69-17.97,3.19-26.88,5.35c-4.11,1.03-8.91,2.07-12.89,3.57
				c-7.68,2.91-14.81,6.95-21.39,12.77c-2.74,2.35-5.35,4.79-7.95,7.33c-3.29,3.76-6.17,7.89-8.91,12.3
				c-4.11,6.67-7.82,13.71-11.52,20.66c-11.79,21.7-27.29,39.82-45.26,53.07c-7.95,5.82-16.46,10.8-25.23,14.65
				c-5.76,2.54-11.79,4.6-17.83,6.2c-5.76,1.31-11.52,1.97-17.42,2.07c0.14,0.66,0.41,1.13,0.96,1.5c1.37,1.6,2.88,3.1,4.25,4.6
				s2.88,3.01,4.39,4.41C1583.86,378.96,1584.27,379.24,1584.82,379.33z"/>
			<path class="st15" d="M1587.15,378.49c9.05-2.54,18.24-4.41,27.02-7.98c9.19-3.76,18.51-8.83,26.88-15.03
				c14.54-10.71,27.43-24.04,38.81-39.82c6.17-8.73,11.38-18.32,16.18-28.27c1.78-3.94,3.7-7.89,5.62-11.74
				c1.78-3.76,3.7-7.42,5.76-10.9c4.66-5.54,9.33-11.08,14.13-16.53c6.31-4.7,13.17-7.14,20.71-7.14
				c7.13-2.54,14.26-3.94,21.67-4.23c3.29-0.19,6.58-0.47,9.87-0.75c10.29-0.85,20.43-2.16,30.45-5.45
				c6.86-2.25,13.58-5.17,19.75-9.58c5.35-3.85,10.29-8.36,14.67-13.71c10.29-12.02,18.24-27.24,23.18-43.86
				c2.61-8.83,4.66-18.69,5.35-28.18c0.14-3.19,0.41-6.48,0.55-9.67c0.14-6.57-0.27-13.06-0.96-19.54c-0.14-0.94-1.1,0.47-1.23,0.56
				c-0.41,0.56-2.06,2.35-2.06,3.19c0.69,6.1,0.96,12.21,0.82,18.32c0,4.6-0.41,9.11-1.1,13.62c-1.37,10.71-3.7,20.95-7.41,30.71
				c-6.31,16.91-15.91,31.56-27.98,42.45c-25.78,23.2-58.7,16.81-88.05,23.86c-9.33,2.25-19.06,6.2-26.33,14.18
				c-9.6,10.61-15.63,24.8-22.22,38.32c-10.97,22.54-26.33,41.8-43.75,56.35c-8.23,6.76-16.87,12.4-25.92,17.09
				c-5.9,3.01-12.07,5.45-18.24,7.42c-5.76,0.85-11.25,2.54-16.73,4.98C1585.78,377.45,1586.74,378.67,1587.15,378.49z"/>
			<path class="st15" d="M1586.19,385.91c9.46-1.69,18.65-3.76,27.7-7.23c3.15-1.22,6.31-2.72,9.46-4.23
				c18.51-9.3,35.52-23.76,49.65-41.42c7.13-8.92,13.71-18.97,19.2-29.59c5.21-10.05,9.46-21.04,15.36-30.62
				c3.98-6.57,8.64-12.4,14.26-16.72c9.33-5.92,19.2-9.2,29.35-9.96c4.25-0.66,8.5-1.13,12.89-1.32
				c13.44-1.03,27.02-1.69,40.05-6.01c11.66-3.94,22.77-10.05,31.95-20.19c10.56-11.74,18.79-26.2,24.27-42.55
				c3.02-9.11,5.21-18.41,6.45-28.18c0.69-4.88,1.1-9.77,1.1-14.65c0.14-6.67-0.27-13.24-1.1-19.82c0-0.75-1.78-0.09-1.65,0.75
				c0.69,6.48,0.96,12.96,0.82,19.44c-0.14,4.88-0.55,9.67-1.37,14.37c-1.37,9.58-3.57,18.69-6.72,27.52
				c-6.58,18.5-16.87,35.22-30.45,46.49c-13.71,11.46-29.76,15.97-45.81,18.32c-12.89,1.88-26.06,2.16-38.95,4.98
				c-6.03,1.32-12.21,3.1-17.83,6.39c-5.76,3.48-10.97,7.89-15.36,13.99c-4.66,6.39-8.37,13.62-11.93,20.95
				c-4.39,8.92-8.64,17.75-13.85,26.02c-6.17,9.96-13.17,18.88-20.85,27.05c-7.54,8.17-15.77,15.03-24.41,21.23
				c-11.38,7.98-23.45,13.81-36.21,17.56c-6.03,1.6-12.07,2.91-18.1,3.94C1583.31,382.53,1585.51,386,1586.19,385.91z"/>
			<path class="st15" d="M1584,379.99c9.46-1.32,18.51-2.91,27.57-6.67c6.17-2.54,12.07-5.54,17.97-8.92
				c16.32-9.49,31.13-23.48,43.61-39.73c5.76-7.51,11.11-15.5,15.63-24.23c3.29-6.39,6.31-12.96,9.46-19.35
				c3.02-6.01,6.17-12.02,10.15-17.28c1.51-1.88,3.15-3.76,4.66-5.64c3.29-3.38,6.99-6.2,10.83-8.45c-0.14,0.09-0.27,0.19-0.41,0.28
				c2.06-1.03,4.11-2.16,6.17-3.19c-0.14,0.09-0.27,0.09-0.41,0.19c2.19-0.75,4.25-1.6,6.45-2.35c-0.14,0.09-0.27,0.09-0.41,0.19
				c15.09-4.04,30.58-4.51,45.81-6.67c14.95-2.07,29.9-6.01,42.93-15.87c13.58-10.33,24.27-26.2,31.27-44.14
				c3.29-8.55,5.76-17.47,7.41-26.67c1.1-6.2,1.65-12.4,1.92-18.78s0-12.68-0.69-18.97c-0.55,0-0.96,0.28-1.51,0.75
				c-1.65,1.32-3.15,2.63-4.8,3.94c-1.65,1.32-3.15,2.72-4.66,4.13c-0.55,0.28-0.82,0.85-1.1,1.41c0,8.27-0.41,16.25-1.92,24.33
				c-1.65,9.39-4.66,18.32-8.37,26.58c-6.45,14.37-15.5,26.58-26.61,35.22c-12.48,9.77-26.88,14.09-41.14,17.19
				c-13.71,2.91-27.43,5.07-40.87,9.2c-6.45,1.97-12.75,4.51-18.65,8.36c-3.02,1.97-5.9,4.23-8.64,6.86
				c-2.74,2.44-5.35,4.88-7.95,7.33c-4.94,5.35-9.05,12.4-12.89,18.88c-3.98,6.76-7.54,13.9-11.52,20.66
				c-10.97,18.5-25.51,33.53-41.14,45.18c-9.19,6.86-19.2,12.02-29.49,15.97c-4.39,1.78-8.78,3.29-13.3,4.32
				c-5.76,1.22-11.38,1.78-17.28,1.88c0.14,0.75,0.55,1.32,0.96,1.78c1.51,1.88,3.02,3.76,4.53,5.64c1.51,1.88,3.15,3.66,4.66,5.45
				C1582.9,379.43,1583.45,379.8,1584,379.99z"/>
			<path class="st15" d="M1583.86,377.55c4.66-0.28,9.19-1.13,13.71-2.35c3.15-0.56,6.17-1.5,9.19-2.63
				c7.82-2.63,15.36-6.11,22.63-10.43c14.67-8.73,28.8-20.66,40.32-35.03c4.66-5.82,9.19-12.02,13.3-18.6
				c4.39-6.86,8.09-14.28,11.66-21.79c3.02-6.29,6.17-12.68,9.74-18.5c1.37-2.16,2.88-4.32,4.25-6.48
				c2.88-4.04,6.17-7.51,9.87-10.33c-0.14,0.09-0.27,0.19-0.41,0.28c3.57-2.82,7.27-5.07,11.25-6.76s7.95-2.91,11.93-3.85
				c8.5-1.97,17.14-2.63,25.65-3.57c16.05-1.69,32.37-3.57,47.31-11.46c15.77-8.27,28.66-23.48,37.44-41.8
				c5.21-10.8,9.05-22.73,11.11-35.03c1.1-6.2,1.78-12.49,2.06-18.88c0.27-6.39,0-12.77-0.69-19.16c-0.55,0.09-1.1,0.47-1.51,1.03
				c-1.65,1.6-3.29,3.19-4.94,4.88s-3.29,3.38-4.8,5.07c-0.55,0.38-0.82,0.94-1.1,1.6c0.14,5.45,0,10.9-0.69,16.34
				c-0.55,5.45-1.65,10.8-2.88,15.97c-2.06,7.8-4.8,15.31-8.23,22.35c-7.95,16.25-19.75,29.96-33.6,37.57
				c-12.62,6.86-26.06,9.96-39.5,12.68c-6.86,1.41-13.85,2.54-20.57,4.13c-6.45,1.5-13.03,2.91-19.34,5.45
				c-7.68,3.1-14.81,7.33-21.26,13.34c-2.74,2.44-5.35,4.88-7.95,7.42c-3.29,3.76-6.17,7.89-8.91,12.3
				c-4.11,6.57-7.82,13.52-11.52,20.38c-11.79,21.41-27.29,39.17-45.12,52.13c-7.95,5.73-16.46,10.52-25.1,14.28
				c-5.76,2.54-11.66,4.51-17.69,6.01c-5.76,1.22-11.52,1.88-17.42,1.97c0.14,0.66,0.55,1.13,0.96,1.5c1.51,1.6,3.02,3.1,4.53,4.6
				c1.51,1.5,3.02,3.01,4.66,4.41C1582.9,377.17,1583.31,377.45,1583.86,377.55z"/>
			<path class="st15" d="M1584.82,382.43c6.17-0.66,12.21-1.88,18.24-3.57c3.02-1.03,6.17-2.16,9.19-3.19
				c10.97-4.13,21.26-10.52,30.99-17.94c17.14-13.06,31.95-30.15,43.75-50.72c5.21-9.2,9.46-19.16,14.4-28.55
				c4.94-9.11,10.29-17.94,17.97-23.67c5.35-4.04,11.11-6.95,17.28-8.73c6.17-1.69,12.34-2.54,18.65-3.29
				c13.3-1.5,26.74-1.78,39.91-5.07c11.66-2.91,22.77-7.7,32.78-15.87c12.48-10.24,21.94-26.02,28.66-42.55
				c3.98-10.05,6.72-20.95,8.23-32.03c0.82-4.79,1.23-9.58,1.23-14.37c0.27-6.48,0-12.96-0.82-19.44c0-0.56-2.74,1.88-2.74,1.78
				c-0.55,0.47-2.19,1.6-2.19,2.63c0.41,6.1,0.41,12.3,0,18.41c-0.27,3.01-0.69,6.01-0.96,9.11c-1.37,10.52-4.39,20.66-8.23,30.06
				c-6.58,15.97-15.91,29.87-27.84,39.82c-14.4,12.12-31.27,16.72-48.14,19.44c-13.03,2.16-26.19,3.19-39.09,6.86
				c-12.34,3.48-24.55,11.18-33.19,23.2c-7.82,10.99-13.44,23.95-20.16,35.97c-11.11,19.91-26.19,36.25-42.51,48.93
				c-9.46,7.42-19.75,13.06-30.31,17.38c-4.53,1.97-9.05,3.57-13.58,4.7c-5.76,1.5-11.66,2.35-17.55,2.54
				c-0.27,0,2.74,4.51,2.74,4.41C1581.94,379.43,1583.86,382.62,1584.82,382.43z"/>
			<path class="st15" d="M1587.29,379.71c6.03-0.94,12.07-2.16,18.1-3.94c4.66-1.32,9.33-3.19,13.85-5.35
				c9.33-4.23,18.1-9.58,26.47-16.15c18.51-14.28,34.83-33.53,46.77-56.45c7.54-14.65,13.44-31.65,24.27-42.92
				c12.34-12.77,28.8-14.75,44.02-16.06c14.54-1.22,29.62-1.6,43.75-6.39c6.72-2.25,13.58-5.07,19.75-9.49
				c6.45-4.6,12.21-10.05,17.42-16.62c10.83-13.71,18.38-30.9,22.9-49.31c2.33-9.3,3.29-19.07,3.7-28.83
				c0.27-7.61-0.27-12.12-0.96-19.63c-0.14-1.03-1.23,0.38-1.37,0.56c-0.41,0.56-2.61,2.44-2.61,3.48
				c0.96,9.39,0.96,18.69-0.14,27.99c-0.41,3.1-0.82,6.1-1.37,9.2c-1.78,10.61-5.07,20.76-9.19,30.24
				c-6.99,15.87-16.73,29.68-29.21,39.07c-12.89,9.77-27.84,13.71-42.65,15.69c-15.22,2.07-30.72,1.97-45.67,6.67
				c-8.23,2.63-16.59,7.23-23.18,14.28c-5.07,5.35-9.19,12.4-12.75,19.35c-3.98,7.51-7.41,15.4-11.25,23.01
				c-5.35,10.43-11.93,19.72-18.93,28.46c-6.99,8.73-14.81,16.15-22.9,23.01c-9.46,7.8-19.61,13.99-30.31,18.69
				c-4.39,2.16-9.05,3.85-13.71,5.17c-5.76,1.5-11.66,2.82-17.55,3.94C1584.27,377.27,1586.61,379.8,1587.29,379.71z"/>
			<path class="st15" d="M1584.96,382.53c6.17-0.56,12.34-1.78,18.24-3.48c3.02-1.03,6.17-2.16,9.19-3.19
				c9.33-3.57,18.24-8.83,26.74-14.75c8.5-5.92,16.87-13.43,24.27-21.41c7.54-8.17,14.54-17.38,20.57-27.24
				c5.07-8.27,9.19-17.09,13.44-25.92c3.57-7.33,7.27-14.84,11.93-21.13c3.43-5.17,7.82-8.92,12.89-11.27
				c4.25-3.85,8.91-6.48,14.13-7.7c6.17-1.88,12.48-2.72,18.79-3.38c27.02-3.01,56.78-2.91,78.72-26.49
				c10.42-11.27,18.51-25.27,24.14-41.14c3.02-8.83,5.21-17.85,6.45-27.24c0.69-4.7,1.1-9.39,1.23-14.18
				c0.14-6.39,0-12.77-0.82-19.16c0-0.47-4.53,3.01-4.39,2.91c-0.55,0.38-3.98,2.54-3.98,3.76c0.27,5.82,0.14,11.65-0.41,17.38
				c-0.55,5.73-1.51,11.36-2.88,16.91c-2.06,8.27-4.8,16.25-8.37,23.67c-7.95,16.91-20.02,31.65-34.29,39.73
				c-12.48,7.14-25.92,10.24-39.5,12.77c-9.05,1.69-18.1,2.91-27.02,5.07c-3.98,0.94-8.37,1.69-12.21,3.1
				c-7.68,2.63-14.67,6.57-21.12,12.21c-2.61,2.25-5.21,4.6-7.82,7.04c-3.29,3.76-6.17,7.89-8.91,12.4
				c-4.25,6.76-7.82,13.99-11.66,21.13c-11.93,22.17-27.57,40.67-45.94,54.19c-8.09,5.92-16.59,10.99-25.37,14.84
				c-5.9,2.63-11.79,4.7-17.97,6.29c-5.76,1.32-11.38,2.07-17.28,2.16c0.14,0.66,0.27,1.13,0.69,1.6c1.1,1.69,2.33,3.29,3.57,4.88
				c1.23,1.6,2.47,3.19,3.7,4.7C1584.14,382.06,1584.55,382.34,1584.96,382.53z"/>
			<path class="st15" d="M1583.73,378.67c4.66-0.38,9.19-1.13,13.71-2.35c3.15-0.56,6.17-1.5,9.19-2.63
				c7.82-2.63,15.36-6.11,22.63-10.43c14.67-8.73,28.66-20.66,40.18-35.13c4.66-5.82,9.19-12.02,13.3-18.5
				c4.39-6.86,7.95-14.28,11.66-21.79c3.02-6.29,6.03-12.59,9.6-18.41c1.37-2.16,2.88-4.32,4.25-6.48
				c2.88-4.04,6.17-7.51,10.01-10.33c-0.14,0.09-0.27,0.19-0.41,0.28c1.92-1.41,3.98-2.72,5.9-4.13c-0.14,0.09-0.27,0.19-0.41,0.28
				c3.7-2.25,7.68-3.94,11.66-5.17c4.11-1.32,8.09-2.25,12.34-2.82c6.58-1.13,13.3-1.69,20.02-2.44
				c17.14-1.78,34.42-3.94,50.06-13.24c15.5-9.2,27.7-25.17,35.93-44.05c4.25-9.67,7.41-20.01,9.33-30.81
				c1.1-6.2,1.78-12.49,1.92-18.78c0.27-6.39,0-12.77-0.69-19.07c-0.55,0.09-1.1,0.38-1.51,0.85c-1.65,1.41-3.15,2.91-4.8,4.41
				s-3.15,3.01-4.66,4.6c-0.55,0.38-0.82,0.85-1.1,1.5c0.14,5.45,0,10.9-0.69,16.34c-0.41,4.04-1.1,8.08-2.06,12.02
				c-2.06,9.2-4.94,18.13-9.05,26.3c-6.99,13.9-16.32,25.73-27.84,33.81c-12.89,9.02-27.57,12.77-41.83,15.69
				c-12.48,2.54-25.1,4.7-37.44,8.45c-5.49,1.69-7.27,2.25-12.62,4.98c-6.45,3.29-11.93,7.7-17.42,12.77
				c-3.7,3.01-6.99,6.57-9.87,10.8c-2.19,3.1-4.25,6.39-6.17,9.67c-4.66,7.8-8.78,16.25-13.44,23.95
				c-11.25,18.32-25.37,33.62-41.28,45.18c-7.95,5.73-16.46,10.43-25.1,14.28c-5.76,2.54-11.66,4.51-17.69,6.01
				c-5.76,1.22-11.52,1.78-17.28,1.88c0.14,0.66,0.55,1.22,0.96,1.6c1.51,1.69,3.02,3.48,4.53,5.07c1.51,1.69,3.02,3.29,4.66,4.88
				C1582.77,378.21,1583.18,378.49,1583.73,378.67z"/>
			<path class="st15" d="M1585.51,381.3c6.17-0.56,12.34-1.69,18.38-3.48c3.02-1.03,6.17-2.16,9.19-3.19
				c10.83-4.13,21.26-10.43,30.99-17.85c17.14-13.06,31.82-30.06,43.61-50.44c5.21-9.11,9.33-19.07,14.4-28.36
				c3.7-6.86,7.68-14.18,12.89-19.25c3.43-2.72,6.99-5.45,10.42-8.17c3.84-2.16,7.68-3.85,11.79-5.07
				c6.17-1.78,12.34-2.72,18.65-3.38c11.25-1.32,22.49-1.88,33.6-3.85c13.85-2.54,27.29-7.51,39.22-17.19
				c12.34-10.14,21.81-25.83,28.39-42.27c3.98-9.96,6.58-20.76,8.09-31.75c0.69-4.7,1.1-9.49,1.23-14.28
				c0.14-6.39,0-12.87-0.82-19.25c0-0.47-4.66,3.29-4.53,3.19c-0.55,0.47-4.11,2.82-4.11,4.13c0.27,5.82,0.14,11.65-0.41,17.47
				c-0.41,4.32-0.96,8.64-1.92,12.77c-1.92,9.86-4.94,19.44-9.05,28.08c-7.13,14.75-16.59,27.52-28.39,36.25
				c-12.75,9.39-27.57,13.34-41.97,16.06c-7.82,1.5-15.63,2.54-23.31,4.04c-6.45,1.22-13.03,2.44-19.34,4.51
				c-4.25,1.32-8.64,3.38-12.62,5.64c-4.11,2.35-7.68,5.64-11.38,8.83c-3.7,2.91-6.99,6.39-9.74,10.61
				c-2.19,3.1-4.25,6.39-6.17,9.86c-4.8,8.17-8.78,17-13.58,25.08c-11.38,19.07-25.65,35.13-41.83,47.34
				c-8.09,6.01-16.59,10.9-25.51,15.03c-5.9,2.63-11.79,4.7-17.97,6.29c-5.76,1.41-11.52,2.07-17.28,2.25
				c0.14,0.56,0.27,1.03,0.69,1.41c1.1,1.5,2.33,2.91,3.57,4.32c1.23,1.41,2.47,2.82,3.7,4.13
				C1584.69,381.02,1584.96,381.3,1585.51,381.3z"/>
			<path class="st15" d="M1586.88,386.66c6.31-0.85,12.48-2.07,18.51-3.85c3.15-1.13,6.17-2.16,9.33-3.29
				c6.31-2.44,12.48-5.82,18.38-9.3c18.1-10.8,34.15-26.96,47.45-45.74c6.17-8.73,11.38-18.32,16.18-28.36
				c3.7-7.61,7.13-15.4,11.38-22.64c3.98-6.76,8.78-12.12,14.26-16.62c12.48-10.24,30.72-10.43,45.53-11.55
				c13.58-0.94,27.15-2.25,40.18-7.04c9.33-3.48,17.97-8.55,25.65-16.15c12.21-11.83,21.26-27.71,27.15-45.46
				c3.02-9.11,5.21-18.41,6.31-28.27c0.69-4.88,1.1-9.77,1.1-14.75c0.14-6.67-0.27-13.24-1.1-19.82c0-0.75-1.51-0.28-1.51,0.56
				c0.69,6.48,0.96,12.96,0.82,19.44c-0.14,4.88-0.55,9.67-1.37,14.46c-1.51,11.08-4.11,21.88-8.23,31.93
				c-6.86,16.72-16.46,31.75-28.94,42.17c-14.67,12.3-32.09,16.53-49.23,18.78c-11.93,1.5-23.86,1.97-35.66,4.51
				c-6.03,1.32-12.07,3.1-17.69,6.29c-6.99,3.94-12.62,9.77-17.55,17.19c-3.7,5.64-6.86,11.74-10.01,18.03
				c-4.39,8.83-8.64,17.66-13.71,25.83c-6.17,9.86-13.17,19.07-20.85,27.05c-7.54,8.08-15.77,15.03-24.41,21.23
				c-11.25,7.89-23.31,13.71-35.93,17.66c-6.03,1.6-12.21,2.91-18.38,3.94C1584,383.18,1586.19,386.75,1586.88,386.66z"/>
		</g>
	</g>
</g>
<g>
	<g>
		<g>
			<path class="st15" d="M1976.56,279.03c-0.11-0.43-0.36-0.77-0.76-1.03c-1.15-1.06-2.33-2.09-3.53-3.09
				c-1.19-1.02-2.4-2.01-3.63-2.97c-0.32-0.34-0.7-0.54-1.14-0.58c0.11,0.43,0.36,0.77,0.76,1.03c1.15,1.06,2.33,2.09,3.53,3.09
				c1.19,1.02,2.4,2.01,3.63,2.97C1975.74,278.8,1976.12,278.99,1976.56,279.03z"/>
			<path class="st15" d="M1977.74,281.08c-0.11-0.46-0.36-0.84-0.76-1.14c-1.17-1.21-2.37-2.39-3.59-3.55
				c-1.21-1.17-2.44-2.32-3.7-3.44c-0.32-0.39-0.71-0.62-1.17-0.71c0.11,0.46,0.36,0.84,0.76,1.14c1.17,1.21,2.37,2.39,3.59,3.55
				c1.21,1.17,2.44,2.32,3.7,3.44C1976.88,280.75,1977.27,280.99,1977.74,281.08z"/>
			<path class="st15" d="M1979.68,280.75c0.73,0,0.12-1.02-0.38-1.02C1978.56,279.74,1979.18,280.75,1979.68,280.75z"/>
			<path class="st15" d="M1978.78,285.94c0.74,0-1.04-2.75-1.67-2.75C1976.36,283.19,1978.15,285.94,1978.78,285.94z"/>
			<path class="st15" d="M1977.05,281.57c-0.12-0.52-0.39-0.96-0.81-1.33c-1.25-1.46-2.53-2.89-3.84-4.31
				c-1.29-1.42-2.61-2.82-3.96-4.2c-0.33-0.45-0.75-0.76-1.25-0.93c0.12,0.52,0.39,0.96,0.81,1.33c1.25,1.46,2.53,2.89,3.84,4.31
				c1.29,1.42,2.61,2.82,3.96,4.2C1976.12,281.1,1976.54,281.41,1977.05,281.57z"/>
			<path class="st15" d="M1976.9,279.78c-0.13-0.47-0.41-0.85-0.83-1.15c-1.25-1.21-2.53-2.4-3.83-3.55
				c-1.29-1.17-2.6-2.32-3.93-3.44c-0.34-0.39-0.75-0.62-1.23-0.71c0.13,0.47,0.41,0.85,0.83,1.15c1.25,1.21,2.53,2.4,3.83,3.55
				c1.29,1.17,2.6,2.32,3.93,3.44C1976.01,279.46,1976.42,279.69,1976.9,279.78z"/>
			<path class="st15" d="M1977.69,283.41c0.25,0-2.35-3.44-2.28-3.35c-0.44-0.54-1.9-2.87-2.86-2.87c-0.25,0,2.35,3.44,2.28,3.35
				C1975.28,281.08,1976.73,283.41,1977.69,283.41z"/>
			<path class="st15" d="M1979.91,281.56c0.6,0-0.15-0.79-0.18-0.83c-0.34-0.37-1.08-1.07-1.63-1.07c-0.6,0,0.15,0.79,0.18,0.83
				C1978.63,280.86,1979.36,281.56,1979.91,281.56z"/>
			<path class="st15" d="M1977.89,283.42c-0.04-0.45-0.24-0.84-0.59-1.17c-0.98-1.27-2-2.51-3.04-3.74
				c-1.03-1.24-2.08-2.45-3.16-3.63c-0.26-0.4-0.61-0.66-1.05-0.79c0.04,0.45,0.24,0.84,0.59,1.17c0.98,1.27,2,2.51,3.04,3.74
				c1.03,1.24,2.08,2.45,3.16,3.63C1977.1,283.04,1977.45,283.3,1977.89,283.42z"/>
			<path class="st15" d="M1976.79,280.6c-0.12-0.49-0.39-0.9-0.8-1.24c-1.23-1.33-2.49-2.64-3.77-3.92
				c-1.27-1.3-2.57-2.57-3.89-3.81c-0.33-0.42-0.74-0.69-1.23-0.82c0.12,0.49,0.39,0.9,0.8,1.23c1.23,1.33,2.49,2.64,3.77,3.92
				c1.27,1.3,2.57,2.57,3.89,3.81C1975.89,280.2,1976.3,280.47,1976.79,280.6z"/>
			<path class="st15" d="M1978.3,282.59c-0.05-0.42-0.25-0.77-0.59-1.06c-0.97-1.12-1.97-2.21-3-3.28
				c-1.01-1.08-2.05-2.14-3.11-3.17c-0.27-0.36-0.61-0.58-1.03-0.65c0.05,0.42,0.25,0.77,0.59,1.06c0.97,1.12,1.97,2.21,3,3.28
				c1.01,1.08,2.05,2.14,3.11,3.17C1977.54,282.3,1977.88,282.52,1978.3,282.59z"/>
			<path class="st15" d="M1979.39,286.48c0.74,0-1.07-2.76-1.71-2.76C1976.95,283.72,1978.76,286.48,1979.39,286.48z"/>
		</g>
	</g>
</g>
<g>
	<g>
		<g>
			<path class="st15" d="M1237.52,1265.33c-0.11-0.43-0.36-0.77-0.76-1.03c-1.15-1.06-2.33-2.09-3.53-3.09
				c-1.19-1.02-2.4-2.01-3.63-2.97c-0.32-0.34-0.7-0.54-1.14-0.58c0.11,0.43,0.36,0.77,0.76,1.03c1.15,1.06,2.33,2.09,3.53,3.09
				c1.19,1.02,2.4,2.01,3.63,2.97C1236.7,1265.1,1237.08,1265.29,1237.52,1265.33z"/>
			<path class="st15" d="M1238.7,1267.38c-0.11-0.46-0.36-0.84-0.76-1.14c-1.17-1.21-2.37-2.39-3.59-3.55
				c-1.21-1.17-2.44-2.32-3.7-3.44c-0.32-0.39-0.71-0.62-1.17-0.71c0.11,0.46,0.36,0.84,0.76,1.14c1.17,1.21,2.37,2.39,3.59,3.55
				c1.21,1.17,2.44,2.32,3.7,3.44C1237.85,1267.05,1238.24,1267.29,1238.7,1267.38z"/>
			<path class="st15" d="M1240.64,1267.06c0.73,0,0.12-1.02-0.38-1.02C1239.53,1266.04,1240.14,1267.06,1240.64,1267.06z"/>
			<path class="st15" d="M1239.74,1272.24c0.74,0-1.04-2.75-1.67-2.75C1237.33,1269.49,1239.11,1272.24,1239.74,1272.24z"/>
			<path class="st15" d="M1238.01,1267.88c-0.12-0.52-0.39-0.96-0.81-1.33c-1.25-1.46-2.53-2.89-3.84-4.31
				c-1.29-1.42-2.61-2.82-3.96-4.2c-0.33-0.45-0.75-0.76-1.25-0.93c0.12,0.52,0.39,0.96,0.81,1.33c1.25,1.46,2.53,2.89,3.84,4.31
				c1.29,1.42,2.61,2.82,3.96,4.2C1237.08,1267.4,1237.5,1267.71,1238.01,1267.88z"/>
			<path class="st15" d="M1237.87,1266.08c-0.13-0.47-0.41-0.85-0.83-1.15c-1.25-1.21-2.53-2.4-3.83-3.55
				c-1.29-1.17-2.6-2.32-3.93-3.44c-0.34-0.39-0.75-0.62-1.23-0.71c0.13,0.47,0.41,0.85,0.83,1.15c1.25,1.21,2.53,2.4,3.83,3.55
				c1.29,1.17,2.6,2.32,3.93,3.44C1236.98,1265.76,1237.39,1265.99,1237.87,1266.08z"/>
			<path class="st15" d="M1238.66,1269.71c0.25,0-2.35-3.44-2.28-3.35c-0.44-0.54-1.9-2.87-2.86-2.87c-0.25,0,2.35,3.44,2.28,3.35
				C1236.24,1267.38,1237.7,1269.71,1238.66,1269.71z"/>
			<path class="st15" d="M1240.87,1267.87c0.6,0-0.15-0.79-0.18-0.83c-0.34-0.37-1.08-1.07-1.63-1.07c-0.6,0,0.15,0.79,0.18,0.83
				C1239.59,1267.16,1240.32,1267.87,1240.87,1267.87z"/>
			<path class="st15" d="M1238.85,1269.73c-0.04-0.45-0.24-0.84-0.59-1.17c-0.98-1.27-2-2.51-3.04-3.74
				c-1.03-1.24-2.08-2.45-3.16-3.63c-0.26-0.4-0.61-0.66-1.05-0.79c0.04,0.45,0.24,0.84,0.59,1.17c0.98,1.27,2,2.51,3.04,3.74
				c1.03,1.24,2.08,2.45,3.16,3.63C1238.06,1269.34,1238.41,1269.6,1238.85,1269.73z"/>
			<path class="st15" d="M1237.75,1266.9c-0.12-0.49-0.39-0.9-0.8-1.23c-1.23-1.33-2.49-2.64-3.77-3.92
				c-1.27-1.3-2.57-2.57-3.89-3.81c-0.33-0.42-0.74-0.69-1.23-0.82c0.12,0.49,0.39,0.9,0.8,1.24c1.23,1.33,2.49,2.64,3.77,3.92
				c1.27,1.3,2.57,2.57,3.89,3.81C1236.85,1266.5,1237.26,1266.77,1237.75,1266.9z"/>
			<path class="st15" d="M1239.26,1268.89c-0.05-0.42-0.25-0.77-0.59-1.06c-0.97-1.12-1.97-2.21-3-3.28
				c-1.01-1.08-2.05-2.14-3.11-3.17c-0.27-0.36-0.61-0.58-1.03-0.65c0.05,0.42,0.25,0.77,0.59,1.06c0.97,1.12,1.97,2.21,3,3.28
				c1.01,1.08,2.05,2.14,3.11,3.17C1238.5,1268.6,1238.84,1268.82,1239.26,1268.89z"/>
			<path class="st15" d="M1240.35,1272.78c0.74,0-1.07-2.76-1.71-2.76C1237.91,1270.02,1239.72,1272.78,1240.35,1272.78z"/>
		</g>
	</g>
</g>
<g>
	<g>
		<path class="st16" d="M1187.22-344.76"/>
	</g>
</g>
<g>
	<g>
		<path class="st16" d="M280.27,69.35"/>
	</g>
</g>
</svg>
