<?xml version="1.0" encoding="utf-8"?>
<!-- Generator: Adobe Illustrator 27.0.1, SVG Export Plug-In . SVG Version: 6.00 Build 0)  -->
<svg version="1.1" id="Layer_1" xmlns="http://www.w3.org/2000/svg" xmlns:xlink="http://www.w3.org/1999/xlink" x="0px" y="0px"
	 viewBox="0 0 1366 768" style="enable-background:new 0 0 1366 768;" xml:space="preserve">
<style type="text/css">
	.st0{fill:#FFCD7B;stroke:#FFCD7B;stroke-miterlimit:10;}
	.st1{fill:#D68772;}
	.st2{fill:#2E3192;}
	.st3{fill:#009245;stroke:#009245;stroke-miterlimit:10;}
	.st4{fill:#22B573;stroke:#22B573;stroke-miterlimit:10;}
	.st5{fill:#006837;}
	.st6{font-family:'ArialRoundedMTBold';}
	.st7{font-size:7.397px;}
</style>
<g>
	<path class="st0" d="M486.63,327.55c26.23-3.77,41.66,3.85,51.72,13.18l4.49,37.34c-2.38-0.25-4.75-0.51-7.13-0.76
		c-5.5-0.59-11-1.18-16.49-1.76c-0.45-1.44-0.32-3.74,0.5-6.55c0.69-2.38,2.17-4.65,5.2-5.84v-10.89
		c8.99-7.55-49.98-6.06-55.59-7.75c-0.45,1.46-0.97,3.58-1.11,6.16c-0.36,6.67-0.62,11.59,5.5,15.43c3.88,2.43,6.95,2.65,9.36,5.23
		c1.22,1.3,1.46,3.09-0.11,6.15c-51.65-0.9-18.78,56.31-50.09,26.43c-12.97-14.11,4-28.14,26.06-34.98
		c6.81-16.13-14.39-31.74,27.69-41.39H486.63z"/>
	<path class="st1" d="M471.97,395.83c0.69-5.29,1.38-10.58,2.08-15.87c0.37-0.33,0.74-0.66,1.12-0.99c2.67-2.37,5.34-4.73,8.01-7.1
		c-5.24-3.16-10.48-6.33-15.72-9.49c0.28-6.2,0.55-12.4,0.83-18.6c18.73,1,37.46,2,56.19,3l4.13,14.87c-2.85,3.7-5.71,7.4-8.56,11.1
		c7.73,1.63,15.46,3.26,23.19,4.9c-9.84,6.27-19.69,12.53-29.53,18.8L471.97,395.83L471.97,395.83z"/>
	<path class="st2" d="M470.53,350.59c3.46-1.87,8.86-2.27,13.51-1.69c1.3,0.18,2.65,0.48,3.8,0.94c0.75,0.32,1.42,0.76,2.1,1.07
		c1.6,0.7,4.13,1.03,6.09,0.63c0.47-0.1,0.83-0.26,1.17-0.48c0.55-0.36,1.11-0.94,2.08-1.44c0.96-0.49,2.19-0.81,3.48-0.98
		c5.62-0.68,12.36,0.99,16.33,2.68c1.24,0.52,2.69,0.98,3.43,1.81c0.5,0.61-0.2,1.28-1.36,1.39c-0.76,0.1-1.48,0.02-1.88,0.32
		c-0.34,0.28-0.39,0.73-0.54,1.11c-0.26,1.1-1.36,2.22-2.99,2.9c-4.93,2.16-11.73,2.09-16.63-0.02c-2.84-1.16-4.81-2.91-5.23-4.8
		c-0.01-0.05-0.03-0.15-0.02-0.2c0-0.08-0.01,0.12,0.06,0.2c0.15,0.18,0.27,0.22,0.5,0.28c0.09,0.02,0.05,0.01,0.04,0.01
		c-0.12-0.01-0.24-0.01-0.37-0.01c-0.34,0-0.8,0.01-1.09,0.06c-0.06,0.01-0.04,0.02-0.06,0.03c-0.08,0.22-0.09,0.41-0.05,0.71
		c0.11,0.8,0.09,1.68-0.68,2.43c-2.47,2.47-8.71,3.54-13.64,3.06c-6.04-0.54-10.86-3.71-10.25-6.98
		C468.53,352.56,469.1,351.41,470.53,350.59L470.53,350.59L470.53,350.59z M472.42,351.53c-1.07,0.59-1.97,1.33-2.01,2.19
		c-0.33,2.4,3.11,4.67,7.45,5.23c1.94,0.24,4.01,0.17,5.91-0.15c2.08-0.36,4.34-1.03,5.35-2.07c0.39-0.42,0.75-1.27,1.04-1.8
		c0.31-0.56,0.7-1.25,1.8-1.52c0.73-0.18,1.45-0.16,2.2-0.16c0.38,0.01,0.61,0.01,1.02,0.08c0.3,0.07,0.46,0.13,0.64,0.34
		c0.09,0.09,0.06,0.32,0.06,0.2c0.51,3.42,7.63,6.09,13.86,5.13c2.59-0.39,5.26-1.24,6.04-2.65c0.51-1.09,0.43-2.51,2.84-3.02
		c0.72-0.16,1.37-0.17,1.88-0.22c-0.26,0.02-0.61,0.27-0.6,0.42c-0.02,0.07,0.01,0.13,0.03,0.16c-0.6-0.44-1.57-0.79-2.48-1.15
		c-0.81-0.35-1.67-0.67-2.59-0.96c-3.41-1.04-7.87-2-11.76-1.45c-0.2,0.02-0.71,0.14-0.92,0.19c-1.38,0.37-2.04,1.02-3.11,1.64
		c-0.88,0.52-2.29,0.89-3.58,0.99c-2.55,0.19-5.16-0.19-7.12-1.05c-0.79-0.34-1.33-0.71-2.07-1.03c-0.84-0.32-1.8-0.53-2.88-0.67
		C479.71,349.76,475.22,350.04,472.42,351.53L472.42,351.53L472.42,351.53z"/>
	<path class="st3" d="M476.04,377.2c-2.26-0.95-11.84,1.53-17.28,4.95c-3.91,2.46-4.99,4.96-5.35,6.28
		c-3.43,17.25-6.86,34.5-10.29,51.75l22.63,0.19v-30.63c-3.86-1.71-9.08-4.61-9.46-8.37c-0.28-2.66,1.98-4.57,4.53-6.85
		C471.26,385.15,478.83,378.38,476.04,377.2L476.04,377.2z"/>
	<path class="st4" d="M476.01,377.37c-3.35,4.54-7.08,8.03-9.94,10.42c-5.98,5-9.08,5.98-10.36,9.48
		c-0.43,1.19-2.55,6.98,4.14,10.04c1.59,0.73,3.21,1.09,4.56,2.27c2.17,1.91,1.27,3.9,0.83,5.12c-1.11,3.06,0.04,6.2-0.41,9.29
		c-2.05,13.93-2.34,14.74-0.41,15.73c4.07,2.1,9.6,0.68,29.42,0.76c25.36,0.1,33.52,2.5,39.36-0.19c4.21-1.94,2.93-4.54,2.49-11.37
		c-0.41-6.45,1.42-12.89,1.66-19.33c0.84-22.33,5.72-33.44,1.24-33.93c-3.14-0.34-9.25,4.73-14.5,9.1
		c-6.34,5.27-6.51,7.16-11.6,8.34c-5,1.16-6.93-0.19-20.3,0.19c-10.39,0.29-13.08,1.21-15.74,0.19c-1.91-0.74-2.51-1.97-1.66-8.72
		C475.15,381.69,475.63,379.14,476.01,377.37L476.01,377.37L476.01,377.37z"/>
	<path class="st3" d="M530.2,375.07c2.43-1.05,8,0.18,11.43,1.76c3.58,1.65,4.85,3.7,5.9,5.47c4.06,6.85,6.72,12.79,8.11,15.63
		c1.78,3.64,3.44,6.26,5.16,8.99c4.86,7.68,8.48,11.5,7.37,16.61c-0.51,2.35-1.82,4.02-2.21,4.49c-1.81,2.21-3.82,3.17-7,5.27
		c-8.15,5.39-6.29,6.56-10.32,7.62c-4.51,1.19-6.05-0.48-17.7-0.19c-7.58,0.19-9.94,0.97-11.8,0c-2.99-1.56-0.8-5.6,1.84-8.01
		c0.94-0.86,2.47-1.74,5.53-3.52c6.6-3.82,7.6-3.71,8.85-5.08c1.16-1.28,1.16-2.33,0-7.81c-0.97-4.6-1.35-5.68-1.84-8.01
		c-0.95-4.5-0.43-4.63-1.47-11.72c-0.7-4.74-1.05-7.11-1.47-8.6c-0.87-3.02-1.07-5.21-1.47-9.57
		C528.93,376.66,528.89,375.63,530.2,375.07L530.2,375.07z"/>
	<text transform="matrix(1.395 0 0 1 460.3604 404.7754)" class="st5 st6 st7">J</text>
	<text transform="matrix(1.395 0 0 1 466.0176 404.7754)" class="st5 st6 st7">A TIL KLIMA</text>
</g>
</svg>
