<?xml version="1.0" encoding="utf-8"?>
<!-- Generator: Adobe Illustrator 27.0.1, SVG Export Plug-In . SVG Version: 6.00 Build 0)  -->
<svg version="1.1" id="Layer_1" xmlns="http://www.w3.org/2000/svg" xmlns:xlink="http://www.w3.org/1999/xlink" x="0px" y="0px"
	 viewBox="0 0 997.69 833.97" style="enable-background:new 0 0 997.69 833.97;" xml:space="preserve">
<style type="text/css">
	.st0{fill:#0071BC;}
	.st1{fill:#D68772;}
	.st2{fill:#F3E375;}
</style>
<g>
	<path class="st0" d="M580.47,371.19c-3.42-1.21-1.2-4.3-4.95-7.42c-4.71-3.92-14.35-4.18-17.45-4.26
		c-19.47-0.52-39.92,10.52-38.8,18.64c0.17,1.21,1.41,3.38,3.91,7.74c2.83,4.94,3.89,5.67,5.21,6c3.32,0.83,6.86-1.27,13.02-3.47
		c6.77-2.42,6.15-1.2,19.79-4.74c7.9-2.05,21.96-6.05,28.9-9c2.13-0.91,3.59-1.71,6.51-2.37c3.29-0.74,5.54-0.64,6.25-1.58
		c0.59-0.77,0-2.07-1.3-2.69C597.04,365.91,586.27,373.25,580.47,371.19L580.47,371.19z"/>
	<path class="st1" d="M561.46,383.19c-1.07,0.87-0.86,1.47-1.82,3.63c-1.19,2.69-2.31,3.59-3.12,5.05
		c-1.92,3.46-1.56,9.02,3.12,11.21c2.22,1.04,3.75,0.55,14.32,0.47c3.38-0.03,6.98,0.51,12.13,0.13c2.57-0.19,3.85-0.28,4.54-0.61
		c3.77-1.78-2.08-6.05-2.08-15.48c0,0-0.05-3.52-2.6-8.21c-1.05-1.94-1.68-2.46-2.6-2.68c-2.93-0.71-5.12,2.52-12.76,4.26
		C565.95,382.04,563.4,381.62,561.46,383.19L561.46,383.19z"/>
	<path class="st0" d="M586.69,401.85c0.18,0.14,0.21,0.33,0.26,0.64c0.1,0.65-0.26,0.88-0.26,1.28c-0.01,0.74,1.19,0.93,2.1,1.92
		c0.28,0.31,0.52,0.68,0.79,1.76c0.92,3.71,0.26,6.57,0.26,6.57c-0.36,1.57-0.58,2.5-1.31,3.53c-2.74,3.81-9.96,5.21-11.29,5.45
		c-11.95,2.15-22.4-3.9-22.84-4.17c-5.18-3.1-6.65-6.72-7.09-7.85c-1.84-4.79,0.35-9.11,0.79-9.94c0.62-1.16,2.12-3.59,3.67-7.21
		c0.51-1.18,1-2.44,0-3.69c-1.13-1.41-3.52-1.95-4.2-2.08c-3.73-0.73-8.75,0.32-10.5,2.72c-0.83,1.14-1.21,2.98,0.26,4.17
		c1.39,1.12,3.79,1.15,3.94,2.08c0.07,0.4-0.37,0.5-1.05,1.44c-0.85,1.18-0.46,1.43-1.05,2.24c-0.46,0.63-1.62,1.23-3.94,2.4
		c-2.02,1.03-3.03,1.54-3.41,1.44c-1.18-0.29,0.07-2.57-0.53-6.89c-0.36-2.64-1.05-3.41-1.31-3.69c-0.83-0.86-1.79-1.32-1.58-1.92
		c0.29-0.8,2.39-1.15,3.15-1.28c4.1-0.72,7.62-2.35,11.55-3.37c8.36-2.15,12.57-3.25,14.44-4.17c1.74-0.86,4.08-2.22,4.72-1.92
		c0.42,0.19-0.08,0.98-0.26,1.28c-1.4,2.3-1.47,4.82-2.36,7.21c-1.64,4.39-3.21,8.62,0.26,10.74c1.18,0.72,2.54,0.95,4.46,1.28
		c3.95,0.68,5.09-0.2,11.81,0c3.65,0.11,3.98,0.38,6.04,0.16C584.06,401.81,586.04,401.35,586.69,401.85L586.69,401.85z"/>
	<path class="st1" d="M540.08,396.89c-0.63-0.71-1.42-0.6-2.68-1.66c-0.4-0.33-2.02-1.7-1.68-3.33c0.38-1.8,3.17-3.82,7.72-4.33
		c3.98-0.44,8.01,0.42,10.07,1.83c1.85,1.27,1.74,2.75,1.68,3.66c-0.09,1.28-0.87,2.35-1.34,2.99c-0.72,0.98-1.49,1.66-1.68,1.83
		c-1.42,1.29-6.42,7.16-3.69,13.81c1.15,2.8,2.52,6.14,8.05,8.15c4.79,1.74,9.33,1.27,10.74,2.99c0.54,0.66,0.12,1.04-3.69,5.99
		c-2.51,3.26-3.31,4.36-3.36,5.99c-0.06,1.87,0.92,2.68,0.34,2.83c-2.35,0.62-18.91-12.17-21.47-14.14
		c-5.33-4.12-5.55-4.7-8.39-5.99c-2.18-0.99-4.4-1.71-5.03-3.16c-0.45-1.04,0.39-1.37,1.34-3.66c1.33-3.19,0.17-3.66,1.68-4.99
		c1.68-1.48,3.29-1.04,6.71-2.83C538.18,401.42,541.7,398.73,540.08,396.89L540.08,396.89z"/>
	<path class="st0" d="M525.53,414.58c-6.53-2.89,13.6,5.64,19.02,8.83c6.17,3.62,4.32,3.83,10.09,6.8
		c7.14,3.67,10.35,3.55,13.2,6.08c3.01,2.68,0.08,3.41,1.55,8.4c1.64,5.57,5.7,6.08,4.27,8.83c-1.65,3.18-7.55,3.48-17.47,7.82
		c-14.65,6.4-16.1,11.99-21.35,11.73c-1.08-0.06-1.95-0.34-8.93-6.66c-5-4.53-5.24-5-7.76-6.95c-4.59-3.54-5.94-3.63-6.99-5.21
		c-2.11-3.18,1.37-5.77,3.88-8.25c2.56-2.53,4.04-7.04,6.99-16.07C522.03,429.93,523.44,425.6,525.53,414.58L525.53,414.58z"/>
	<path class="st1" d="M534,473.3c-1.05-1.15,4.03-3.12,6.68-4.2c5.19-2.11,14.1-7.52,31.9-18.33c7.77-4.72,17.66-8.83,23.4-14.13
		c0.88-0.81,4.74-4.49,10.94-5.18c1.05-0.12,3.57-0.3,6.08-0.42c1.41-0.07,3.93-0.18,6.68-0.14c3.77,0.06,5.35,0.36,8.2,0.56
		c8.96,0.63,11.83-1.2,15.8,0c2.6,0.78,3.53,2.02,4.86,3.78c1.01,1.33,3.05,4.03,1.22,7.28c-0.4,0.72-3.25,5.44-12.76,7.14
		c-0.9,0.16-9.23,1.59-14.28-0.28c-4.15-1.54-2.67-4.04-4.86-4.34c-3.37-0.46-7.76,5.43-20.05,13.85c-6.18,4.23-7.62,4.5-11.85,7.98
		c-5.54,4.55-5.18,5.83-9.12,7c-5.08,1.5-8.3-0.18-24.61,0C540.9,473.98,535,474.39,534,473.3L534,473.3z"/>
	<polyline class="st2" points="594.56,436.1 591.67,436.38 608.56,454.58 611.45,454.31 	"/>
</g>
</svg>
