<?xml version="1.0" encoding="utf-8"?>
<!-- Generator: Adobe Illustrator 27.0.1, SVG Export Plug-In . SVG Version: 6.00 Build 0)  -->
<svg version="1.1" id="Layer_1" xmlns="http://www.w3.org/2000/svg" xmlns:xlink="http://www.w3.org/1999/xlink" x="0px" y="0px"
	 viewBox="0 0 1920 1080" style="enable-background:new 0 0 1920 1080;" xml:space="preserve">
<style type="text/css">
	.st0{fill:#534741;}
	.st1{fill:#998675;}
	.st2{fill:#736357;}
	.st3{opacity:0.5;fill:#22B573;enable-background:new    ;}
	.st4{fill:#8C6239;}
	.st5{font-family:'MyriadPro-Regular';}
	.st6{font-size:7.0005px;}
	.st7{font-size:3.3257px;}
</style>
<polygon class="st0" points="806.5,656.38 807.52,616.8 852.31,617.25 851.39,656.16 "/>
<polygon class="st1" points="852.29,617.69 857.64,621.75 856.18,656.15 850.67,656.16 "/>
<polygon class="st0" points="857.61,621.46 870.35,621.46 870.13,655.94 856.31,655.71 "/>
<path d="M874.86,627.45"/>
<polygon class="st1" points="870.35,621.24 874.35,624.74 873.47,655.48 869.22,655.94 "/>
<polygon class="st0" points="873.87,633.87 890.95,633.87 890.63,656.38 873.02,656.49 "/>
<polygon class="st1" points="806.81,616.76 811.6,607.76 828.05,598.3 840.23,598.18 849.4,607.29 852.29,617.69 "/>
<polygon class="st0" points="849.4,607.29 856.21,614.47 857.61,621.46 852.29,617.69 "/>
<polygon class="st2" points="890.99,617.8 908.04,618 908.99,656.19 889.62,656.49 889.68,654.86 "/>
<polyline class="st0" points="892.69,617.91 893.31,601.73 905.81,601.39 906.43,618.02 "/>
<path class="st2" d="M894.54,601.3c-0.13-0.2-0.3-1.05-0.61-2.75c-0.41-2.18-0.41-2.59-0.31-3.01c0.27-1.06,0.95-1.14,1.54-1.96
	c1.16-1.61,0.3-3.73,0.41-7.73c0.07-2.65,0.46-1.91,1.02-6.81c0.54-4.65,0.29-6.19,1.33-7.2c0.92-0.89,2.4-0.94,3.28-0.13
	c0.8,0.73,0.89,1.97,1.13,4.32c0.69,6.67,0.85,5.28,0.92,7.73c0.16,5.29-0.74,6.85,0.41,8.77c0.61,1.02,1.36,1.42,1.54,2.75
	c0.14,1.02-0.23,1.4-0.31,3.27c-0.08,1.85,0.25,2.08,0,2.62c-0.53,1.16-2.16,0.38-5.74,0.52
	C896.42,601.8,895.23,602.34,894.54,601.3z"/>
<polygon class="st0" points="908.08,633.99 926.62,633.99 926.27,656.16 907.14,656.27 "/>
<polygon class="st0" points="930.87,622.12 946.5,622.12 946.23,656.6 929.28,656.38 "/>
<polygon class="st1" points="931.12,622.57 924.16,625.97 925.68,655.83 933.07,656.27 "/>
<path class="st1" d="M928.87,618.47"/>
<path class="st1" d="M924.16,626c-0.27-0.29,0.73-1.34,2.77-4.99c0.86-1.54,1.39-2.62,2.46-2.88c0.57-0.14,0.87,0.05,1.74,0.22
	c1.46,0.28,1.77-0.05,4-0.11c1.61-0.04,3.84,0.07,5.12,0.22c0.1,0.01,1.64,0.2,2.36-0.11c0.05-0.02,0.2-0.09,0.41-0.11
	c0,0,0.43-0.04,0.92,0.22c0.62,0.33,2.75,2.17,2.36,3.21c-0.34,0.9-2.26,0.33-7.99,0.33c-5.44,0.01-7.42-0.16-7.48,0.22
	c-0.02,0.12,0.16,0.24,0.3,0.33c-0.33,0.15-0.83,0.38-1.43,0.67c0,0-0.57,0.27-1.13,0.55C926.14,625.01,924.49,626.35,924.16,626z"
	/>
<path class="st1" d="M939.22,598.73"/>
<rect x="812.6" y="552.18" class="st3" width="83.02" height="92.23"/>
<text transform="matrix(0.8599 0 0 1 831.0923 563.0723)" class="st4 st5 st6">VALGKAMP SPILLET</text>
<text transform="matrix(0.9245 0 0 1 816.4326 569.4629)" class="st5 st7">Der er valg i Danmark!</text>
<text transform="matrix(0.9245 0 0 1 816.4326 579.6621)" class="st5 st7">Du har lige opstartet et nyt parti, som ønsker at </text>
<text transform="matrix(0.9245 0 0 1 816.4326 584.7617)" class="st5 st7">fremme klima på dagsordenen. Derfor hænger flere</text>
<text transform="matrix(0.9245 0 0 1 816.4326 589.8613)" class="st5 st7">af dine valgplakater rundt omkring i København.</text>
<text transform="matrix(0.9245 0 0 1 816.4326 600.0605)" class="st5 st7">For at få point skal du identificere og klikke på alle dine </text>
<text transform="matrix(0.9245 0 0 1 816.4326 605.1592)" class="st5 st7">vælgere, som bærer grønt tøj. Dette vil give dig stemmer. </text>
<text transform="matrix(0.9245 0 0 1 816.4326 615.3584)" class="st5 st7">MEN vær opmærksom! </text>
<text transform="matrix(0.9245 0 0 1 816.4326 625.5576)" class="st5 st7">Flere borgere er modstander af dig og dit parti, og har i seene</text>
<text transform="matrix(0.9245 0 0 1 816.4326 630.6562)" class="st5 st7">at sabortere dine valgplakater. </text>
<text transform="matrix(0.9245 0 0 1 816.4326 635.7559)" class="st5 st7">Undgå at klikke på dine modstandere, som bærer blåt tøj </text>
<text transform="matrix(0.9245 0 0 1 816.4326 640.8555)" class="st5 st7">ellers mister du dine valgplakater.</text>
<text transform="matrix(0.9245 0 0 1 816.4326 656.1543)" class="st5 st7"> </text>
<text transform="matrix(0.9245 0 0 1 816.4326 666.3525)" class="st5 st7"> </text>
</svg>
