<?xml version="1.0" encoding="utf-8"?>
<!-- Generator: Adobe Illustrator 27.0.1, SVG Export Plug-In . SVG Version: 6.00 Build 0)  -->
<svg version="1.1" id="Layer_1" xmlns="http://www.w3.org/2000/svg" xmlns:xlink="http://www.w3.org/1999/xlink" x="0px" y="0px"
	 viewBox="0 0 1920 1080" style="enable-background:new 0 0 1920 1080;" xml:space="preserve">
<style type="text/css">
	.st0{fill:#534741;}
	.st1{fill:#998675;}
	.st2{fill:#FFCD77;stroke:#FFCD77;stroke-miterlimit:10;}
	.st3{fill:#ED8772;}
	.st4{fill:#292D95;}
	.st5{fill:#00923D;stroke:#00923D;stroke-miterlimit:10;}
	.st6{fill:#00B570;stroke:#00B570;stroke-miterlimit:10;}
	.st7{fill:#006830;}
	.st8{opacity:0.5;fill:#22B573;enable-background:new    ;}
	.st9{fill:#8C6239;}
	.st10{font-family:'MyriadPro-Regular';}
	.st11{font-size:5.9515px;}
	.st12{font-size:2.9773px;}
	.st13{font-size:3.4007px;}
	.st14{opacity:0.8;fill:#22B573;enable-background:new    ;}
	.st15{fill:#603813;}
	.st16{font-size:4.9907px;}
</style>
<polygon class="st0" points="731.16,597.98 732.24,563.31 779.52,563.7 778.55,597.79 "/>
<polyline class="st1" points="715.41,597.48 795.05,597.42 795.5,622.87 715.18,623 "/>
<g>
	<path class="st2" d="M752.3,509.18c6.55-1.84,10.41,1.88,12.92,6.45l1.12,18.27c-0.59-0.12-1.19-0.25-1.78-0.37
		c-1.37-0.29-2.75-0.58-4.12-0.86c-0.11-0.7-0.08-1.83,0.12-3.2c0.17-1.17,0.54-2.27,1.3-2.86v-5.33
		c2.25-3.69-12.49-2.97-13.89-3.79c-0.11,0.71-0.24,1.75-0.28,3.01c-0.09,3.26-0.16,5.67,1.37,7.55c0.97,1.19,1.74,1.3,2.34,2.56
		c0.3,0.64,0.36,1.51-0.03,3.01c-12.9-0.44-4.69,27.55-12.51,12.93c-3.24-6.9,1-13.76,6.51-17.11
		C747.09,521.53,741.79,513.9,752.3,509.18z"/>
	<path class="st3" d="M748.64,542.58c0.17-2.59,0.35-5.18,0.52-7.76c0.09-0.16,0.19-0.32,0.28-0.48c0.67-1.16,1.33-2.31,2-3.47
		c-1.31-1.55-2.62-3.1-3.93-4.64c0.07-3.03,0.14-6.07,0.21-9.1c4.68,0.49,9.36,0.98,14.04,1.47l1.03,7.27
		c-0.71,1.81-1.43,3.62-2.14,5.43c1.93,0.8,3.86,1.6,5.79,2.39c-2.46,3.06-4.92,6.13-7.38,9.19L748.64,542.58z"/>
	<g>
		<path class="st4" d="M748.23,520.38c1.05-1.13,3.06-1.29,4.31-0.45c0.24,0.15,0.44,0.43,0.63,0.6c0.17,0.15,0.35,0.24,0.58,0.31
			c0.39,0.1,0.86,0.13,1.13-0.23c0.16-0.22,0.31-0.51,0.52-0.72c0.48-0.48,1.22-0.62,1.85-0.57c1.21,0.13,2.27,0.64,3.22,1.42
			c0.23,0.19,0.95,0.65,0.91,1.21c-0.02,0.33-0.31,0.53-0.58,0.54c-0.17,0.02-0.21,0.01-0.29,0.09c-0.08,0.12-0.08,0.33-0.12,0.51
			c-0.04,0.27-0.12,0.57-0.25,0.82c-0.4,0.74-1.16,1.17-1.91,1.36c-1.92,0.5-4.01-1.13-4.19-3.2l0-0.04c0-0.03-0.01-0.01,0.01,0.08
			c0.01,0.04,0.03,0.08,0.05,0.12c0.05,0.07,0.09,0.09,0.14,0.11c-0.1-0.01-0.26-0.01-0.34,0.02c-0.02,0.01,0,0.01,0.01,0.01
			c0.01,0,0.01,0.01,0.01,0c0.01,0.18,0.04,0.43,0.04,0.64c0.04,0.61-0.32,1.23-0.74,1.6c-0.85,0.75-1.97,1.02-3.04,0.8
			c-1.49-0.32-2.69-1.87-2.54-3.5C747.72,521.39,747.85,520.8,748.23,520.38L748.23,520.38z M748.81,520.97
			c-0.25,0.28-0.49,0.61-0.49,1.02c-0.05,0.84,0.39,1.64,1.05,2.09c0.95,0.69,2.32,0.47,3.17-0.3c0.37-0.33,0.4-0.75,0.56-1.24
			c0.06-0.21,0.17-0.55,0.37-0.7c0.26-0.21,0.61-0.18,0.9-0.15c0.06,0.01,0.11,0.03,0.16,0.07c0.04,0.02,0.13,0.14,0.14,0.21
			c0.02,0.09,0.01,0.12,0.01,0.1c0,0,0-0.01,0-0.01c0,0.02,0,0.08,0.01,0.11c0.2,1.61,1.91,2.76,3.37,2.32
			c0.61-0.19,1.25-0.57,1.45-1.24c0.06-0.22,0.08-0.43,0.13-0.68c0.11-0.59,0.53-0.94,1.08-0.97c0.02,0,0.04-0.01,0.04-0.01
			c-0.02,0.01-0.03,0.01-0.06,0.02c-0.08,0.05-0.16,0.17-0.16,0.26c0,0.05,0,0.1,0.01,0.13c-0.13-0.16-0.38-0.37-0.6-0.53
			c-0.39-0.33-0.85-0.61-1.31-0.82c-0.8-0.36-1.96-0.69-2.65-0.08c-0.19,0.18-0.32,0.39-0.52,0.61c-0.6,0.67-1.63,0.64-2.36,0.26
			c-0.39-0.18-0.67-0.59-1-0.83C751.18,520.03,749.59,520.15,748.81,520.97L748.81,520.97z"/>
	</g>
	<path class="st5" d="M749.66,533.46c-0.56-0.46-2.96,0.75-4.32,2.42c-0.98,1.2-1.25,2.43-1.34,3.07
		c-0.86,8.44-1.71,16.87-2.57,25.31l5.65,0.09v-14.98c-0.96-0.83-2.27-2.25-2.36-4.1c-0.07-1.3,0.5-2.23,1.13-3.35
		C748.46,537.35,750.36,534.04,749.66,533.46z"/>
	<path class="st6" d="M749.65,533.55c-0.84,2.22-1.77,3.93-2.48,5.1c-1.49,2.45-2.27,2.93-2.59,4.64c-0.11,0.58-0.64,3.41,1.03,4.91
		c0.4,0.36,0.8,0.53,1.14,1.11c0.54,0.94,0.32,1.91,0.21,2.5c-0.28,1.49,0.01,3.03-0.1,4.54c-0.51,6.81-0.59,7.21-0.1,7.7
		c1.02,1.03,2.4,0.33,7.35,0.37c6.34,0.05,8.37,1.22,9.83-0.09c1.05-0.95,0.73-2.22,0.62-5.56c-0.1-3.15,0.35-6.3,0.41-9.46
		c0.21-10.92,1.43-16.36,0.31-16.59c-0.79-0.17-2.31,2.31-3.62,4.45c-1.58,2.58-1.63,3.5-2.9,4.08c-1.25,0.57-1.73-0.09-5.07,0.09
		c-2.59,0.14-3.27,0.59-3.93,0.09c-0.48-0.36-0.63-0.96-0.41-4.26C749.44,535.66,749.56,534.41,749.65,533.55z"/>
	<path class="st5" d="M763.19,532.42c0.61-0.51,2,0.09,2.86,0.86c0.89,0.81,1.21,1.81,1.47,2.68c1.01,3.35,1.68,6.25,2.03,7.64
		c0.44,1.78,0.86,3.06,1.29,4.4c1.21,3.75,2.12,5.63,1.84,8.12c-0.13,1.15-0.46,1.97-0.55,2.2c-0.45,1.08-0.95,1.55-1.75,2.58
		c-2.04,2.64-1.57,3.21-2.58,3.73c-1.13,0.58-1.51-0.24-4.42-0.1c-1.89,0.09-2.48,0.47-2.95,0c-0.75-0.76-0.2-2.74,0.46-3.92
		c0.24-0.42,0.62-0.85,1.38-1.72c1.65-1.87,1.9-1.81,2.21-2.48c0.29-0.62,0.29-1.14,0-3.82c-0.24-2.25-0.34-2.78-0.46-3.92
		c-0.24-2.2-0.11-2.26-0.37-5.73c-0.17-2.32-0.26-3.48-0.37-4.2c-0.22-1.48-0.27-2.55-0.37-4.68
		C762.87,533.2,762.86,532.7,763.19,532.42z"/>
	<g>
		<g>
			<path class="st7" d="M747.02,544.64v1.36c0,0.12,0,0.22-0.01,0.3c-0.01,0.08-0.02,0.17-0.05,0.25c-0.04,0.14-0.11,0.25-0.21,0.33
				s-0.21,0.12-0.35,0.12c-0.13,0-0.23-0.03-0.31-0.08s-0.15-0.14-0.2-0.27c-0.03-0.07-0.05-0.14-0.07-0.23
				c-0.02-0.09-0.03-0.17-0.03-0.25c0-0.08,0.02-0.15,0.05-0.19c0.03-0.04,0.08-0.07,0.13-0.07c0.05,0,0.09,0.02,0.11,0.06
				c0.03,0.04,0.04,0.1,0.06,0.19c0.01,0.09,0.03,0.16,0.04,0.22c0.01,0.05,0.04,0.1,0.07,0.14c0.03,0.04,0.08,0.06,0.14,0.06
				c0.17,0,0.25-0.17,0.25-0.51v-1.43c0-0.11,0.02-0.19,0.05-0.24c0.03-0.05,0.08-0.08,0.14-0.08c0.06,0,0.1,0.03,0.14,0.08
				C747,544.45,747.02,544.53,747.02,544.64z"/>
			<path class="st7" d="M748.61,546.66l-0.09-0.33h-0.75l-0.09,0.33c-0.03,0.13-0.06,0.22-0.09,0.26c-0.02,0.04-0.06,0.07-0.12,0.07
				c-0.05,0-0.09-0.02-0.12-0.07c-0.04-0.05-0.05-0.1-0.05-0.16c0-0.04,0-0.07,0.01-0.11s0.02-0.09,0.04-0.16l0.47-1.68
				c0.01-0.05,0.03-0.11,0.05-0.17s0.04-0.12,0.06-0.17c0.02-0.04,0.05-0.08,0.08-0.11c0.03-0.03,0.08-0.04,0.13-0.04
				c0.05,0,0.1,0.01,0.13,0.04c0.03,0.03,0.06,0.06,0.08,0.11c0.02,0.04,0.04,0.09,0.05,0.14c0.01,0.05,0.03,0.12,0.06,0.2
				l0.48,1.67c0.04,0.13,0.06,0.22,0.06,0.28c0,0.06-0.02,0.12-0.05,0.16c-0.04,0.05-0.08,0.08-0.13,0.08
				c-0.03,0-0.06-0.01-0.08-0.02c-0.02-0.01-0.04-0.03-0.05-0.06c-0.01-0.03-0.03-0.06-0.05-0.12
				C748.64,546.75,748.62,546.7,748.61,546.66z M747.87,545.94h0.55l-0.28-1.07L747.87,545.94z"/>
			<path class="st7" d="M751.14,544.8h-0.41v1.88c0,0.11-0.02,0.19-0.05,0.24c-0.03,0.05-0.08,0.08-0.13,0.08
				c-0.06,0-0.1-0.03-0.14-0.08c-0.03-0.05-0.05-0.13-0.05-0.24v-1.88h-0.41c-0.06,0-0.11-0.02-0.14-0.06
				c-0.03-0.04-0.05-0.09-0.05-0.16c0-0.07,0.02-0.12,0.05-0.16c0.03-0.04,0.08-0.06,0.14-0.06h1.19c0.06,0,0.11,0.02,0.14,0.06
				s0.05,0.09,0.05,0.16s-0.02,0.12-0.05,0.16C751.25,544.78,751.2,544.8,751.14,544.8z"/>
			<path class="st7" d="M751.57,546.68v-2.04c0-0.11,0.02-0.19,0.05-0.24c0.03-0.05,0.08-0.08,0.13-0.08c0.06,0,0.1,0.03,0.14,0.08
				s0.05,0.13,0.05,0.24v2.04c0,0.11-0.02,0.19-0.05,0.24s-0.08,0.08-0.14,0.08c-0.05,0-0.1-0.03-0.13-0.08
				C751.58,546.86,751.57,546.78,751.57,546.68z"/>
			<path class="st7" d="M752.73,544.64v1.88h0.76c0.06,0,0.11,0.02,0.14,0.06c0.03,0.04,0.05,0.09,0.05,0.16
				c0,0.06-0.02,0.12-0.05,0.15s-0.08,0.06-0.14,0.06h-0.91c-0.08,0-0.14-0.03-0.18-0.08c-0.04-0.05-0.05-0.13-0.05-0.25v-1.99
				c0-0.11,0.02-0.19,0.05-0.24c0.03-0.05,0.08-0.08,0.13-0.08c0.06,0,0.1,0.03,0.14,0.08
				C752.71,544.45,752.73,544.53,752.73,544.64z"/>
			<path class="st7" d="M754.95,544.64v0.91l0.74-1.07c0.03-0.05,0.07-0.09,0.09-0.11c0.03-0.02,0.06-0.04,0.1-0.04
				c0.05,0,0.1,0.02,0.13,0.07s0.05,0.1,0.05,0.16c0,0.08-0.03,0.15-0.08,0.23l-0.46,0.6l0.53,1.05c0.04,0.07,0.06,0.14,0.08,0.19
				c0.02,0.05,0.03,0.11,0.03,0.16c0,0.06-0.02,0.11-0.05,0.15c-0.03,0.04-0.08,0.06-0.13,0.06c-0.05,0-0.1-0.02-0.13-0.05
				c-0.03-0.03-0.06-0.07-0.08-0.12c-0.02-0.05-0.04-0.1-0.06-0.14l-0.44-0.95l-0.31,0.41v0.54c0,0.11-0.02,0.19-0.05,0.24
				s-0.08,0.08-0.14,0.08c-0.03,0-0.06-0.01-0.09-0.03c-0.03-0.02-0.05-0.05-0.07-0.1c-0.01-0.03-0.02-0.07-0.02-0.11
				c0-0.04,0-0.11,0-0.19v-1.93c0-0.11,0.02-0.19,0.05-0.24c0.03-0.05,0.08-0.08,0.14-0.08c0.06,0,0.1,0.03,0.14,0.08
				S754.95,544.53,754.95,544.64z"/>
			<path class="st7" d="M756.85,544.64v1.88h0.76c0.06,0,0.11,0.02,0.14,0.06c0.03,0.04,0.05,0.09,0.05,0.16
				c0,0.06-0.02,0.12-0.05,0.15s-0.08,0.06-0.14,0.06h-0.91c-0.08,0-0.14-0.03-0.18-0.08c-0.04-0.05-0.05-0.13-0.05-0.25v-1.99
				c0-0.11,0.02-0.19,0.05-0.24c0.03-0.05,0.08-0.08,0.13-0.08c0.06,0,0.1,0.03,0.14,0.08
				C756.83,544.45,756.85,544.53,756.85,544.64z"/>
			<path class="st7" d="M758.06,546.68v-2.04c0-0.11,0.02-0.19,0.05-0.24c0.03-0.05,0.08-0.08,0.13-0.08c0.06,0,0.1,0.03,0.14,0.08
				s0.05,0.13,0.05,0.24v2.04c0,0.11-0.02,0.19-0.05,0.24s-0.08,0.08-0.14,0.08c-0.05,0-0.1-0.03-0.13-0.08
				C758.08,546.86,758.06,546.78,758.06,546.68z"/>
			<path class="st7" d="M759.48,546.56l-0.3-1.65v1.79c0,0.1-0.02,0.17-0.05,0.22c-0.03,0.05-0.07,0.07-0.13,0.07
				c-0.05,0-0.09-0.02-0.12-0.07s-0.05-0.12-0.05-0.22v-2.05c0-0.11,0.02-0.19,0.06-0.23c0.04-0.04,0.1-0.06,0.17-0.06h0.12
				c0.07,0,0.12,0.01,0.15,0.03s0.06,0.05,0.07,0.1c0.01,0.05,0.03,0.12,0.05,0.22l0.27,1.42l0.27-1.42
				c0.02-0.1,0.04-0.18,0.05-0.22s0.04-0.08,0.07-0.1c0.03-0.02,0.08-0.03,0.15-0.03h0.12c0.07,0,0.13,0.02,0.17,0.06
				c0.04,0.04,0.06,0.12,0.06,0.23v2.05c0,0.1-0.02,0.17-0.05,0.22s-0.07,0.07-0.13,0.07c-0.05,0-0.09-0.02-0.12-0.07
				c-0.03-0.05-0.05-0.12-0.05-0.22v-1.79l-0.3,1.65c-0.02,0.11-0.03,0.19-0.05,0.24c-0.01,0.05-0.03,0.1-0.07,0.14
				c-0.03,0.04-0.08,0.06-0.14,0.06c-0.04,0-0.08-0.01-0.11-0.04c-0.03-0.03-0.05-0.06-0.07-0.1c-0.02-0.04-0.03-0.09-0.04-0.14
				C759.5,546.67,759.49,546.62,759.48,546.56z"/>
			<path class="st7" d="M762.2,546.66l-0.09-0.33h-0.75l-0.09,0.33c-0.03,0.13-0.06,0.22-0.09,0.26c-0.02,0.04-0.06,0.07-0.12,0.07
				c-0.05,0-0.09-0.02-0.12-0.07c-0.04-0.05-0.05-0.1-0.05-0.16c0-0.04,0-0.07,0.01-0.11c0.01-0.04,0.02-0.09,0.04-0.16l0.47-1.68
				c0.01-0.05,0.03-0.11,0.05-0.17s0.04-0.12,0.06-0.17c0.02-0.04,0.05-0.08,0.08-0.11c0.03-0.03,0.08-0.04,0.13-0.04
				c0.05,0,0.1,0.01,0.13,0.04c0.03,0.03,0.06,0.06,0.08,0.11c0.02,0.04,0.04,0.09,0.05,0.14c0.01,0.05,0.03,0.12,0.06,0.2
				l0.48,1.67c0.04,0.13,0.06,0.22,0.06,0.28c0,0.06-0.02,0.12-0.05,0.16s-0.08,0.08-0.13,0.08c-0.03,0-0.06-0.01-0.08-0.02
				c-0.02-0.01-0.04-0.03-0.05-0.06c-0.01-0.03-0.03-0.06-0.05-0.12C762.22,546.75,762.21,546.7,762.2,546.66z M761.45,545.94h0.55
				l-0.28-1.07L761.45,545.94z"/>
		</g>
	</g>
</g>
<rect x="655.5" y="508" class="st8" width="74.71" height="75.62"/>
<text transform="matrix(0.9662 0 0 1 659.9683 520.4985)" class="st9 st10 st11">                  Du vandt! </text>
<text transform="matrix(0.9662 0 0 1 659.9683 527.6406)" class="st9 st10 st11">         Du er i folketinget. </text>
<text transform="matrix(0.9723 0 0 1 670.5464 538.4634)" class="st10 st12">Stort tillykke med sejren.</text>
<text transform="matrix(0.9723 0 0 1 670.5464 542.0352)" class="st10 st12">Du har vundet!</text>
<text transform="matrix(0.751 0 0 1 669.9297 550.5469)" class="st10 st13">Kunne du tænke dig at prøve igen?</text>
<rect x="670.21" y="556.58" class="st14" width="17.78" height="9.99"/>
<rect x="691.06" y="556.47" class="st14" width="17.78" height="9.99"/>
<text transform="matrix(1.4246 0 0 1 694.1523 563.4688)" class="st15 st10 st16">NEJ</text>
<text transform="matrix(1.4246 0 0 1 675.0703 563.0195)" class="st15 st10 st16">JA</text>
</svg>
